SplineFontDB: 3.0
FontName: zero10
FullName: zero10
FamilyName: zero10
Weight: bold
Copyright: Copyright (c) 2018, Tariq yosef shishani \ntariqdesign.com
UComments: "2018-4-14: Created with FontForge (http://fontforge.org)"
Version: 001.000
ItalicAngle: 0
UnderlinePosition: -100
UnderlineWidth: 50
Ascent: 800
Descent: 200
InvalidEm: 0
LayerCount: 2
Layer: 0 0 "Back" 1
Layer: 1 0 "Fore" 0
XUID: [1021 62 2092848022 23926]
StyleMap: 0x0000
FSType: 0
OS2Version: 0
OS2_WeightWidthSlopeOnly: 0
OS2_UseTypoMetrics: 1
CreationTime: 1523704887
ModificationTime: 1523844996
OS2TypoAscent: 0
OS2TypoAOffset: 1
OS2TypoDescent: 0
OS2TypoDOffset: 1
OS2TypoLinegap: 90
OS2WinAscent: 0
OS2WinAOffset: 1
OS2WinDescent: 0
OS2WinDOffset: 1
HheadAscent: 0
HheadAOffset: 1
HheadDescent: 0
HheadDOffset: 1
Lookup: 258 0 0 "'kern' Horizontal Kerning in Latin lookup 0" { "'kern' Horizontal Kerning in Latin lookup 0-1" [150,15,0] } ['kern' ('DFLT' <'dflt' > 'latn' <'dflt' > ) ]
MarkAttachClasses: 1
DEI: 91125
KernClass2: 3 3 "'kern' Horizontal Kerning in Latin lookup 0-1"
 3 T t
 3 A a
 3 A a
 3 T t
 0 {} 0 {} 0 {} 0 {} -120 {} 44 {} 0 {} 0 {} -135 {}
Encoding: ISO8859-1
UnicodeInterp: none
NameList: AGL For New Fonts
DisplaySize: -48
AntiAlias: 1
FitToEm: 0
WinInfo: 33 33 7
BeginPrivate: 0
EndPrivate
Grid
64.224609375 1300 m 0
 64.224609375 -700 l 1024
  Named: "li"
EndSplineSet
BeginChars: 256 101

StartChar: L
Encoding: 76 76 2
Width: 635
VWidth: 0
Flags: HW
LayerCount: 2
Fore
SplineSet
141.5 124.80078125 m 6
 457.700195312 124.80078125 l 6
 466.099609375 124.80078125 474.200195312 121.400390625 480.099609375 115.5 c 6
 493.200195312 102.400390625 l 6
 499.200195312 96.400390625 502.5 88.400390625 502.5 80 c 6
 502.5 44.80078125 l 6
 502.5 36.400390625 499.099609375 28.30078125 493.200195312 22.400390625 c 6
 480.099609375 9.30078125 l 6
 480.099609375 9.30078125 466.200195312 0 457.799804688 0 c 6
 31.7001953125 -0.69921875 l 6
 14.2001953125 -0.69921875 0 13.5 0 31 c 6
 0 834 l 6
 0 842.400390625 3.2998046875 850.5 9.2998046875 856.400390625 c 6
 22.400390625 869.5 l 6
 28.400390625 875.5 36.400390625 878.80078125 44.7998046875 878.80078125 c 6
 80.900390625 878.80078125 l 6
 89.2998046875 878.80078125 97.400390625 875.400390625 103.299804688 869.5 c 6
 116.400390625 856.400390625 l 6
 122.400390625 850.400390625 125.700195312 842.400390625 125.700195312 834 c 6
 125.700195312 140.600585938 l 6
 125.700195312 131.900390625 132.799804688 124.80078125 141.5 124.80078125 c 6
EndSplineSet
Validated: 524289
EndChar

StartChar: K
Encoding: 75 75 3
Width: 635
VWidth: 0
Flags: HW
LayerCount: 2
Fore
SplineSet
506 841.30078125 m 6
 506 760 l 6
 506 751.100585938 504.099609375 742.30078125 500.5 734.100585938 c 6
 390.200195312 512.200195312 l 6
 388.599609375 508.600585938 386.400390625 505.400390625 383.599609375 502.600585938 c 6
 324.5 443.5 l 5
 383.599609375 384.400390625 l 6
 386.400390625 381.600585938 388.599609375 378.400390625 390.200195312 374.80078125 c 6
 500.299804688 153.30078125 l 6
 503.900390625 145.100585938 505.799804688 136.30078125 505.799804688 127.400390625 c 6
 505.799804688 45.900390625 l 6
 505.799804688 37.5 502.5 29.400390625 496.5 23.400390625 c 6
 483.299804688 10.2001953125 l 6
 477.400390625 4.30078125 469.299804688 0.900390625 460.799804688 0.900390625 c 6
 424.5 0.900390625 l 6
 416.099609375 0.900390625 408 4.2001953125 402 10.2001953125 c 6
 388.799804688 23.400390625 l 6
 382.900390625 29.30078125 379.5 37.400390625 379.5 45.900390625 c 6
 379.5 127.30078125 l 6
 379.5 136.30078125 377.599609375 145.100585938 374 153.200195312 c 6
 269.5 361.80078125 l 6
 264.400390625 373.200195312 253.099609375 380.600585938 240.5 380.700195312 c 6
 142.299804688 381.100585938 l 6
 133.5 381.200195312 126.299804688 374 126.299804688 365.200195312 c 6
 126.299804688 46 l 6
 126.299804688 37.6005859375 123 29.5 117 23.5 c 6
 103.799804688 10.30078125 l 6
 103.799804688 10.30078125 89.7998046875 1 81.2998046875 1 c 6
 45 1 l 6
 36.599609375 1 28.5 4.30078125 22.5 10.30078125 c 6
 9.2998046875 23.5 l 6
 3.400390625 29.400390625 0 37.5 0 46 c 6
 0 841.400390625 l 6
 0 849.80078125 3.2998046875 857.900390625 9.2998046875 863.900390625 c 6
 22.599609375 877.100585938 l 6
 28.5 883 36.599609375 886.400390625 45.099609375 886.400390625 c 6
 81.400390625 886.400390625 l 6
 89.900390625 886.400390625 98 883 104 877.100585938 c 6
 117.200195312 863.80078125 l 6
 123.099609375 857.900390625 126.5 849.80078125 126.5 841.30078125 c 6
 126.5 522.700195312 l 6
 126.5 513.900390625 133.599609375 506.80078125 142.400390625 506.80078125 c 6
 240.599609375 506.80078125 l 6
 253.200195312 506.80078125 264.599609375 514.200195312 269.700195312 525.700195312 c 6
 374.200195312 734.100585938 l 6
 377.799804688 742.30078125 379.700195312 751.100585938 379.700195312 760 c 6
 379.700195312 841.400390625 l 6
 379.700195312 849.80078125 383 857.900390625 389 863.900390625 c 6
 402.200195312 877.100585938 l 6
 408.099609375 883 416.200195312 886.400390625 424.700195312 886.400390625 c 6
 461 886.400390625 l 6
 469.400390625 886.400390625 477.5 883.100585938 483.5 877.100585938 c 6
 496.700195312 863.80078125 l 6
 502.599609375 857.900390625 506 849.80078125 506 841.30078125 c 6
EndSplineSet
Validated: 524293
EndChar

StartChar: F
Encoding: 70 70 4
Width: 635
VWidth: 0
Flags: HW
LayerCount: 2
Fore
SplineSet
127 746.700195312 m 2
 127 523.900390625 l 2
 127 515.100585938 134.200195312 507.900390625 143 507.900390625 c 2
 463.099609375 507.900390625 l 2
 471.599609375 507.900390625 479.700195312 504.5 485.700195312 498.5 c 2
 499 485.200195312 l 2
 505 479.200195312 508.400390625 471.100585938 508.400390625 462.600585938 c 2
 508.400390625 427.100585938 l 2
 508.400390625 418.600585938 505 410.5 499 404.5 c 2
 485.700195312 391.200195312 l 2
 479.700195312 385.200195312 471.599609375 381.80078125 463.099609375 381.80078125 c 2
 143 381.80078125 l 2
 134.200195312 381.80078125 127 374.600585938 127 365.80078125 c 2
 127 38.6005859375 l 2
 127 34.400390625 125.299804688 30.30078125 122.299804688 27.30078125 c 2
 99.7001953125 4.7001953125 l 2
 96.7001953125 1.7001953125 92.599609375 0 88.400390625 0 c 2
 38.599609375 0 l 2
 34.400390625 0 30.2998046875 1.7001953125 27.2998046875 4.7001953125 c 2
 4.7001953125 27.30078125 l 2
 1.7001953125 30.30078125 0 34.30078125 0 38.6005859375 c 2
 0 843.700195312 l 2
 0 852.200195312 3.400390625 860.30078125 9.400390625 866.30078125 c 2
 22.7001953125 879.5 l 2
 28.7001953125 885.5 36.7998046875 888.900390625 45.2998046875 888.900390625 c 1
 45.2998046875 888.900390625 l 1
 463.099609375 888.80078125 l 2
 471.599609375 888.80078125 479.700195312 885.400390625 485.700195312 879.400390625 c 2
 499 866.100585938 l 2
 505 860.100585938 508.400390625 852 508.400390625 843.5 c 2
 508.400390625 808 l 2
 508.400390625 799.5 505 791.400390625 499 785.400390625 c 2
 485.700195312 772.100585938 l 2
 479.700195312 766.100585938 471.599609375 762.700195312 463.099609375 762.700195312 c 2
 143 762.700195312 l 2
 138.599609375 762.700195312 134.599609375 760.900390625 131.700195312 758 c 0
 128.799804688 755.100585938 127 751.100585938 127 746.700195312 c 2
EndSplineSet
Validated: 524293
EndChar

StartChar: G
Encoding: 71 71 5
Width: 635
VWidth: 0
Flags: HW
LayerCount: 2
Fore
SplineSet
508 747.799804688 m 1
 508.099609375 747.799804688 l 1
 508.099609375 679.19921875 l 2
 508.099609375 670.69921875 504.700195312 662.599609375 498.700195312 656.599609375 c 2
 485.400390625 643.299804688 l 2
 479.400390625 637.299804688 471.299804688 633.899414062 462.799804688 633.899414062 c 2
 426.299804688 633.899414062 l 2
 417.799804688 633.899414062 409.700195312 637.299804688 403.700195312 643.299804688 c 2
 390.400390625 656.599609375 l 2
 384.400390625 662.599609375 381 670.69921875 381 679.19921875 c 2
 381 728.899414062 l 2
 381 746.599609375 366.700195312 760.899414062 349 760.899414062 c 2
 142.700195312 760.899414062 l 2
 133.900390625 760.899414062 126.700195312 753.69921875 126.700195312 744.899414062 c 2
 127 141.899414062 l 2
 127 133.099609375 134.200195312 125.899414062 143 125.899414062 c 2
 349 125.899414062 l 2
 366.700195312 125.899414062 381 140.19921875 381 157.899414062 c 2
 381 332.19921875 l 2
 381 341 373.799804688 348.19921875 365 348.19921875 c 2
 299.299804688 348.19921875 l 2
 290.799804688 348.19921875 282.700195312 351.599609375 276.700195312 357.599609375 c 2
 263.400390625 370.899414062 l 2
 257.400390625 376.899414062 254 385 254 393.5 c 2
 254 430 l 2
 254 438.5 257.400390625 446.599609375 263.400390625 452.599609375 c 2
 276.700195312 465.899414062 l 2
 282.700195312 471.899414062 290.799804688 475.299804688 299.299804688 475.299804688 c 2
 462.799804688 475.299804688 l 2
 471.299804688 475.299804688 479.400390625 471.899414062 485.400390625 465.899414062 c 2
 498.700195312 452.599609375 l 2
 504.700195312 446.599609375 508.099609375 438.5 508.099609375 430 c 2
 508.099609375 139.299804688 l 2
 508.099609375 130.799804688 504.700195312 122.69921875 498.700195312 116.69921875 c 2
 390.5 8.5 l 2
 384.400390625 2.3994140625 376.200195312 -0.900390625 367.700195312 -0.900390625 c 2
 140.099609375 0 l 2
 131.700195312 0 123.700195312 3.3994140625 117.700195312 9.2998046875 c 2
 9.5 116.69921875 l 2
 3.400390625 122.69921875 0 130.899414062 0 139.399414062 c 2
 0 747.69921875 l 2
 0 756.19921875 3.400390625 764.399414062 9.5 770.399414062 c 2
 117.700195312 877.799804688 l 2
 123.700195312 883.69921875 131.700195312 887.099609375 140.099609375 887.099609375 c 2
 367.599609375 888 l 2
 376.200195312 888 384.400390625 884.599609375 390.400390625 878.599609375 c 2
 498.599609375 770.399414062 l 2
 504.599609375 764.399414062 508 756.299804688 508 747.799804688 c 1
EndSplineSet
Validated: 524289
EndChar

StartChar: H
Encoding: 72 72 6
Width: 635
VWidth: 0
Flags: HW
LayerCount: 2
Fore
SplineSet
463.099609375 889.200195312 m 1
 426.599609375 889.200195312 l 2
 418.099609375 889.200195312 410 885.799804688 404 879.799804688 c 2
 390.700195312 866.5 l 2
 384.700195312 860.5 381.299804688 852.400390625 381.299804688 843.900390625 c 2
 381.299804688 524 l 2
 381.299804688 515.200195312 374.099609375 508 365.299804688 508 c 2
 143 508 l 2
 134.200195312 508 127 515.200195312 127 524 c 2
 127 843.900390625 l 2
 127 852.400390625 123.599609375 860.5 117.599609375 866.5 c 2
 104.299804688 879.799804688 l 2
 98.2998046875 885.799804688 90.2001953125 889.200195312 81.7001953125 889.200195312 c 2
 45.2998046875 889.200195312 l 2
 36.7998046875 889.200195312 28.7001953125 885.799804688 22.7001953125 879.799804688 c 2
 9.400390625 866.600585938 l 2
 3.400390625 860.600585938 0 852.5 0 844 c 2
 0 45.5 l 2
 0 37 3.400390625 28.900390625 9.400390625 22.900390625 c 2
 22.7001953125 9.6005859375 l 2
 28.7001953125 3.6005859375 36.7998046875 0.2001953125 45.2998046875 0.2001953125 c 2
 81.7998046875 0.2001953125 l 2
 90.2998046875 0.2001953125 98.400390625 3.6005859375 104.400390625 9.6005859375 c 2
 117.700195312 22.900390625 l 2
 123.700195312 28.900390625 127.099609375 37 127.099609375 45.5 c 2
 127.099609375 366.100585938 l 2
 127.099609375 374.900390625 134.299804688 382.100585938 143.099609375 382.100585938 c 2
 365.400390625 382.100585938 l 2
 374.200195312 382.100585938 381.400390625 374.900390625 381.400390625 366.100585938 c 2
 381.400390625 45.5 l 2
 381.400390625 37 384.799804688 28.900390625 390.799804688 22.900390625 c 2
 404.099609375 9.6005859375 l 2
 410.099609375 3.6005859375 418.200195312 0.2001953125 426.700195312 0.2001953125 c 2
 463.200195312 0.2001953125 l 2
 471.700195312 0.2001953125 479.799804688 3.6005859375 485.799804688 9.6005859375 c 2
 499.099609375 22.900390625 l 2
 505.099609375 28.900390625 508.5 37 508.5 45.5 c 2
 508.5 843.900390625 l 2
 508.5 852.400390625 505.099609375 860.5 499.099609375 866.5 c 2
 485.799804688 879.799804688 l 2
 479.700195312 885.799804688 471.599609375 889.200195312 463.099609375 889.200195312 c 1
EndSplineSet
Validated: 524297
EndChar

StartChar: E
Encoding: 69 69 7
Width: 635
VWidth: 0
Flags: HW
LayerCount: 2
Fore
SplineSet
508.299804688 843.5 m 1
 508.400390625 843.5 l 1
 508.400390625 808.400390625 l 2
 508.400390625 799.900390625 505 791.799804688 499 785.799804688 c 2
 485.700195312 772.5 l 2
 479.700195312 766.5 471.599609375 763.099609375 463.099609375 763.099609375 c 2
 143 763.099609375 l 2
 134.200195312 763.099609375 127 755.900390625 127 747.099609375 c 2
 127 524.099609375 l 2
 127 515.299804688 134.200195312 508.099609375 143 508.099609375 c 2
 463.099609375 508.099609375 l 2
 471.599609375 508.099609375 479.700195312 504.700195312 485.700195312 498.700195312 c 2
 499 485.400390625 l 2
 505 479.400390625 508.400390625 471.299804688 508.400390625 462.799804688 c 2
 508.400390625 427.299804688 l 2
 508.400390625 418.799804688 505 410.700195312 499 404.700195312 c 2
 485.700195312 391.400390625 l 2
 479.700195312 385.400390625 471.599609375 382 463.099609375 382 c 2
 143 382 l 2
 134.200195312 382 127 374.799804688 127 366 c 2
 127 143 l 2
 127 134.200195312 134.200195312 127 143 127 c 2
 463.099609375 127 l 2
 471.599609375 127 479.700195312 123.599609375 485.700195312 117.599609375 c 2
 499 104.299804688 l 2
 505 98.2998046875 508.400390625 90.2001953125 508.400390625 81.7001953125 c 2
 508.400390625 46.099609375 l 2
 508.400390625 37.599609375 505 29.5 499 23.5 c 2
 485.799804688 10.2001953125 l 2
 479.799804688 4.2001953125 471.700195312 0.7998046875 463.200195312 0.7998046875 c 2
 45.400390625 0.099609375 l 2
 36.900390625 0.099609375 28.7001953125 3.5 22.7001953125 9.5 c 2
 9.400390625 22.7001953125 l 2
 3.400390625 28.7001953125 0 36.7998046875 0 45.2998046875 c 2
 0 843.700195312 l 2
 0 852.200195312 3.400390625 860.299804688 9.400390625 866.299804688 c 2
 22.599609375 879.5 l 2
 28.599609375 885.5 36.7001953125 888.900390625 45.2001953125 888.900390625 c 2
 463 888.799804688 l 2
 471.5 888.799804688 479.599609375 885.400390625 485.599609375 879.400390625 c 2
 498.900390625 866.099609375 l 2
 504.900390625 860.099609375 508.299804688 852 508.299804688 843.5 c 1
EndSplineSet
Validated: 524289
EndChar

StartChar: I
Encoding: 73 73 8
Width: 313
VWidth: 0
Flags: HW
HStem: 0 21G<105.9 150.4> 0 21G<105.9 150.4> 852.2 20G<105.9 150.4>
VStem: 65.2998 125.7<9.70917 862.49>
LayerCount: 2
Fore
SplineSet
181.700195312 849.799804688 m 2xb0
 187.700195312 843.799804688 191 835.799804688 191 827.399414062 c 2
 191 738.200195312 l 1
 191 456.200195312 l 1
 191 44.7998046875 l 2
 191 36.3994140625 187.700195312 28.2998046875 181.700195312 22.3994140625 c 2
 168.599609375 9.2998046875 l 2
 162.599609375 3.2998046875 154.599609375 0 146.200195312 0 c 2
 110.099609375 0 l 2
 101.700195312 0 93.599609375 3.3994140625 87.7001953125 9.2998046875 c 2
 74.599609375 22.3994140625 l 2
 68.599609375 28.3994140625 65.2998046875 36.3994140625 65.2998046875 44.7998046875 c 2
 65.2998046875 456.200195312 l 1
 65.2998046875 738.200195312 l 1
 65.2998046875 827.399414062 l 2
 65.2998046875 835.799804688 68.599609375 843.899414062 74.599609375 849.799804688 c 2
 87.7001953125 862.899414062 l 2
 93.7001953125 868.899414062 101.700195312 872.200195312 110.099609375 872.200195312 c 2
 146.200195312 872.200195312 l 2
 154.599609375 872.200195312 162.700195312 868.799804688 168.599609375 862.899414062 c 2
 181.700195312 849.799804688 l 2xb0
EndSplineSet
Validated: 524289
EndChar

StartChar: J
Encoding: 74 74 9
Width: 635
VWidth: 0
Flags: HW
LayerCount: 2
Fore
SplineSet
148 870.600585938 m 5
 134.900390625 857.5 l 6
 129 851.600585938 125.599609375 843.5 125.599609375 835.100585938 c 6
 125.599609375 798.80078125 l 6
 125.599609375 790.400390625 128.900390625 782.30078125 134.900390625 776.400390625 c 6
 148 763.30078125 l 6
 153.900390625 757.400390625 162 754 170.400390625 754 c 6
 361.799804688 754 l 6
 370.599609375 754 377.700195312 746.900390625 377.700195312 738.100585938 c 6
 377.700195312 140.900390625 l 6
 377.700195312 132.100585938 370.599609375 125 361.799804688 125 c 6
 157.599609375 125 l 6
 140.099609375 125 125.900390625 139.200195312 125.900390625 156.700195312 c 6
 125.900390625 218.700195312 l 5
 94.2001953125 250.400390625 l 5
 31.7001953125 250.400390625 l 5
 0 218.80078125 l 5
 0 139 l 6
 0 130.600585938 3.2998046875 122.5 9.2998046875 116.600585938 c 6
 116.599609375 9.5 l 6
 122.5 3.6005859375 130.599609375 0.2001953125 139 0.2001953125 c 6
 364.5 0 l 6
 373 0 381.099609375 3.400390625 387.099609375 9.400390625 c 6
 493 116.600585938 l 6
 498.900390625 122.5 503.5 130.5 503.5 138.80078125 c 6
 503.5 835 l 6
 503.5 843.400390625 500.200195312 851.5 494.200195312 857.5 c 6
 481.099609375 870.600585938 l 6
 475.200195312 876.600585938 467.099609375 879.900390625 458.700195312 879.900390625 c 6
 170.5 879.900390625 l 6
 162.099609375 879.900390625 154 876.600585938 148 870.600585938 c 5
EndSplineSet
Validated: 524297
EndChar

StartChar: D
Encoding: 68 68 10
Width: 635
VWidth: 0
Flags: HW
LayerCount: 2
Fore
SplineSet
126.700195312 889 m 1
 44.900390625 889 l 2
 44.7001953125 889 44.5 889 44.2998046875 889 c 2
 126.700195312 889 l 1
 126.700195312 889 l 1
44.900390625 0 m 1
 126.599609375 0 l 1
 126.599609375 0.2001953125 l 1
 42.7998046875 0.099609375 l 2
 43.599609375 0 44.2001953125 0 44.900390625 0 c 1
498.700195312 771.200195312 m 2
 504.700195312 765.200195312 508.099609375 757.099609375 508.200195312 748.599609375 c 2
 508.200195312 140.200195312 l 2
 508.200195312 131.700195312 504.799804688 123.5 498.700195312 117.5 c 2
 390.5 10.099609375 l 2
 384.5 4.2001953125 376.400390625 0.7998046875 368 0.7998046875 c 2
 42.900390625 0.099609375 l 2
 35.2001953125 0.599609375 27.7998046875 3.900390625 22.2998046875 9.400390625 c 2
 9 22.7001953125 l 2
 4.099609375 27.599609375 1 33.900390625 0 40.7001953125 c 2
 0 848.400390625 l 2
 0.900390625 855.099609375 4.099609375 861.5 9 866.400390625 c 2
 22.2998046875 879.700195312 l 2
 28.099609375 885.5 36 888.900390625 44.2998046875 889 c 2
 367.900390625 888.900390625 l 2
 376.400390625 888.900390625 384.5 885.5 390.5 879.5 c 2
 498.700195312 771.200195312 l 2
381.099609375 158.799804688 m 2
 381.099609375 730.900390625 l 2
 381.099609375 748.599609375 366.799804688 762.900390625 349.099609375 762.900390625 c 2
 143 762.900390625 l 2
 134.200195312 762.900390625 127 755.700195312 127 746.900390625 c 2
 127 142.799804688 l 2
 127 134 134.200195312 126.799804688 143 126.799804688 c 2
 349.099609375 126.799804688 l 2
 366.799804688 126.799804688 381.099609375 141.099609375 381.099609375 158.799804688 c 2
EndSplineSet
Validated: 524293
EndChar

StartChar: C
Encoding: 67 67 11
Width: 635
VWidth: 0
Flags: HW
LayerCount: 2
Fore
SplineSet
390.700195312 878.400390625 m 2
 498.900390625 771.100585938 l 2
 505 765.100585938 508.400390625 756.900390625 508.400390625 748.400390625 c 2
 508.400390625 680 l 2
 508.400390625 671.5 505 663.400390625 499 657.400390625 c 2
 485.700195312 644.100585938 l 2
 479.700195312 638.100585938 471.599609375 634.700195312 463.099609375 634.700195312 c 2
 426.599609375 634.700195312 l 2
 418.099609375 634.700195312 410 638.100585938 404 644.100585938 c 2
 390.700195312 657.400390625 l 2
 384.700195312 663.400390625 381.299804688 671.5 381.299804688 680 c 2
 381.299804688 729.700195312 l 2
 381.299804688 747.400390625 367 761.700195312 349.299804688 761.700195312 c 2
 143 761.700195312 l 2
 134.200195312 761.700195312 127 754.5 127 745.700195312 c 2
 127 142.700195312 l 2
 127 133.900390625 134.200195312 126.700195312 143 126.700195312 c 2
 349.299804688 126.700195312 l 2
 367 126.700195312 381.299804688 141 381.299804688 158.700195312 c 2
 381.299804688 208.400390625 l 2
 381.299804688 216.900390625 384.700195312 225 390.700195312 231 c 2
 404 244.299804688 l 2
 410 250.299804688 418.099609375 253.700195312 426.599609375 253.700195312 c 2
 463.099609375 253.700195312 l 2
 471.599609375 253.700195312 479.700195312 250.299804688 485.700195312 244.299804688 c 2
 499 231 l 2
 505 225 508.400390625 216.900390625 508.400390625 208.400390625 c 2
 508.400390625 140 l 2
 508.400390625 131.5 505 123.299804688 498.900390625 117.299804688 c 2
 390.700195312 10 l 2
 384.700195312 4 376.599609375 0.7001953125 368.200195312 0.7001953125 c 2
 140.5 0.7001953125 l 2
 132.099609375 0.7001953125 124 4.1005859375 118 10 c 2
 9.5 117.400390625 l 2
 3.400390625 123.400390625 0 131.600585938 0 140.100585938 c 2
 0 748.400390625 l 2
 0 756.900390625 3.400390625 765.100585938 9.5 771.100585938 c 2
 118 878.400390625 l 2
 124 884.400390625 132.099609375 887.700195312 140.5 887.700195312 c 2
 368.200195312 887.700195312 l 2
 376.599609375 887.700195312 384.700195312 884.299804688 390.700195312 878.400390625 c 2
EndSplineSet
Validated: 524289
EndChar

StartChar: B
Encoding: 66 66 12
Width: 635
VWidth: 0
Flags: HW
LayerCount: 2
Fore
SplineSet
0 843.799804688 m 2
 0 852.299804688 3.400390625 860.5 9.400390625 866.5 c 2
 22.7001953125 879.69921875 l 2
 28.7001953125 885.69921875 36.7998046875 889.099609375 45.2998046875 889.099609375 c 2
 368.099609375 889 l 2
 376.599609375 889 384.700195312 885.599609375 390.700195312 879.599609375 c 2
 499 771.299804688 l 2
 505 765.299804688 508.400390625 757.19921875 508.400390625 748.69921875 c 2
 508.400390625 521.099609375 l 2
 508.400390625 512.599609375 505 504.5 499 498.5 c 2
 444.900390625 444.399414062 l 1
 499 390.299804688 l 2
 505 384.299804688 508.400390625 376.19921875 508.400390625 367.69921875 c 2
 508.400390625 140.19921875 l 2
 508.400390625 131.69921875 505 123.599609375 499 117.599609375 c 2
 390.799804688 10.19921875 l 2
 384.799804688 4.2998046875 376.700195312 0.8994140625 368.299804688 0.8994140625 c 2
 45.400390625 0.19921875 l 2
 36.900390625 0.099609375 28.7001953125 3.5 22.7001953125 9.5 c 2
 9.400390625 22.69921875 l 2
 3.400390625 28.7998046875 0 36.8994140625 0 45.3994140625 c 2
 0 843.799804688 l 2
349.299804688 127 m 2
 367 127 381.299804688 141.299804688 381.299804688 159 c 2
 381.299804688 350 l 2
 381.299804688 367.69921875 367 382 349.299804688 382 c 2
 143 382 l 2
 134.200195312 382 127 374.799804688 127 366 c 2
 127 143 l 2
 127 134.19921875 134.200195312 127 143 127 c 2
 349.299804688 127 l 2
349.299804688 508 m 2
 367 508 381.299804688 522.299804688 381.299804688 540 c 2
 381.299804688 731 l 2
 381.299804688 748.69921875 367 763 349.299804688 763 c 2
 143 763 l 2
 134.200195312 763 127 755.799804688 127 747 c 2
 127 524 l 2
 127 515.19921875 134.200195312 508 143 508 c 2
 349.299804688 508 l 2
EndSplineSet
Validated: 524289
EndChar

StartChar: A
Encoding: 65 65 13
Width: 635
VWidth: 0
Flags: HW
HStem: 0.400391 21.0996G<39.9502 84.9502 421.051 466.051> 0.400391 21.0996G<39.9502 84.9502 421.051 466.051> 224 126<126.03 379.871> 869.5 20G<175.1 330.65> 869.5 20G<175.1 330.65>
VStem: -1.09961 127.1<10.631 224 350 402.2> 380 127.101<10.7316 224 350 453.95>
LayerCount: 2
Fore
SplineSet
503.600585938 422.400390625 m 2xb6
 505.80078125 415.799804688 506.900390625 409 507.100585938 402 c 2
 507.100585938 45.7998046875 l 2
 507.100585938 37.2998046875 503.700195312 29.2001953125 497.700195312 23.2001953125 c 2
 484.400390625 9.900390625 l 2
 478.400390625 3.900390625 470.30078125 0.5 461.80078125 0.5 c 2
 425.30078125 0.5 l 2
 416.80078125 0.5 408.700195312 3.900390625 402.700195312 9.900390625 c 2
 389.400390625 23.2001953125 l 2
 383.400390625 29.2001953125 380 37.2998046875 380 45.7998046875 c 2
 380 208 l 2
 380 216.799804688 372.80078125 224 364 224 c 2
 142 224 l 2
 133.200195312 224 126 216.799804688 126 208 c 2
 126 45.7001953125 l 2
 126 37.2001953125 122.600585938 29.099609375 116.600585938 23.099609375 c 2
 103.30078125 9.7998046875 l 2
 97.30078125 3.7998046875 89.2001953125 0.400390625 80.7001953125 0.400390625 c 2
 44.2001953125 0.400390625 l 2
 35.7001953125 0.400390625 27.6005859375 3.7998046875 21.6005859375 9.7998046875 c 2
 8.30078125 23.099609375 l 2
 2.30078125 29.099609375 -1.099609375 37.2001953125 -1.099609375 45.7001953125 c 2
 -1.099609375 402 l 2
 -1.099609375 409 0 415.799804688 2.2001953125 422.400390625 c 2
 151.700195312 867.700195312 l 2
 156 880.700195312 168.200195312 889.5 182 889.5 c 2
 323.80078125 889.5 l 2
 337.5 889.5 349.700195312 880.700195312 354.100585938 867.700195312 c 2
 503.600585938 422.400390625 l 2xb6
379.900390625 366 m 2
 379.900390625 381.799804688 l 2
 379.900390625 388.700195312 378.80078125 395.599609375 376.600585938 402.200195312 c 2
 252.900390625 770.200195312 l 1
 129.200195312 402.200195312 l 2
 127 395.599609375 125.900390625 388.700195312 125.900390625 381.799804688 c 2
 125.900390625 366 l 2
 125.900390625 357.200195312 133.100585938 350 141.900390625 350 c 2
 363.900390625 350 l 2
 372.700195312 350 379.900390625 357.200195312 379.900390625 366 c 2
EndSplineSet
Validated: 524289
EndChar

StartChar: M
Encoding: 77 77 14
Width: 635
VWidth: 0
Flags: HW
LayerCount: 2
Fore
SplineSet
508.299804688 551.5 m 1
 506.400390625 551.900390625 l 1
 398.400390625 291.400390625 l 2
 396 285.599609375 391.900390625 280.599609375 386.599609375 277 c 2
 373.200195312 268 l 2
 367.900390625 264.5 361.799804688 262.599609375 355.400390625 262.599609375 c 2
 280.099609375 262.599609375 l 2
 273.799804688 262.599609375 267.599609375 264.5 262.299804688 268 c 2
 248.900390625 277 l 2
 243.599609375 280.5 239.5 285.5 237.099609375 291.400390625 c 2
 128.900390625 552.700195312 l 1
 127 552.299804688 l 1
 127 45.2001953125 l 2
 127 36.7001953125 123.599609375 28.599609375 117.599609375 22.599609375 c 2
 104.299804688 9.2998046875 l 2
 98.2998046875 3.2998046875 90.2001953125 -0.099609375 81.7001953125 -0.099609375 c 2
 45.2998046875 -0.099609375 l 2
 36.7998046875 -0.099609375 28.7001953125 3.2998046875 22.7001953125 9.2998046875 c 2
 9.400390625 22.599609375 l 2
 3.400390625 28.599609375 0 36.7001953125 0 45.2001953125 c 2
 0 843.700195312 l 2
 0 852.200195312 3.400390625 860.299804688 9.400390625 866.299804688 c 2
 22.599609375 879.599609375 l 2
 28.599609375 885.599609375 36.7001953125 889 45.2001953125 889 c 2
 95.900390625 889 l 2
 102.200195312 889 108.400390625 887.099609375 113.700195312 883.599609375 c 2
 127.099609375 874.599609375 l 2
 132.400390625 871.099609375 136.5 866.099609375 138.900390625 860.200195312 c 2
 316.900390625 430.700195312 l 1
 318.700195312 430.700195312 l 1
 496.400390625 860.200195312 l 2
 498.799804688 866 502.900390625 871 508.200195312 874.599609375 c 2
 521.599609375 883.599609375 l 2
 526.900390625 887.099609375 533.099609375 889 539.400390625 889 c 2
 590 889 l 2
 598.5 889 606.599609375 885.599609375 612.599609375 879.599609375 c 2
 626 866.400390625 l 2
 632 860.400390625 635.400390625 852.299804688 635.400390625 843.799804688 c 2
 635.400390625 45.2998046875 l 2
 635.400390625 36.7998046875 632 28.7001953125 626 22.7001953125 c 2
 612.700195312 9.400390625 l 2
 606.700195312 3.400390625 598.599609375 0 590.099609375 0 c 2
 553.599609375 0 l 2
 545.099609375 0 537 3.400390625 531 9.400390625 c 2
 517.700195312 22.7001953125 l 2
 511.700195312 28.7001953125 508.299804688 36.7998046875 508.299804688 45.2998046875 c 2
 508.299804688 551.5 l 1
EndSplineSet
Validated: 524289
EndChar

StartChar: N
Encoding: 78 78 15
Width: 635
VWidth: 0
Flags: HW
LayerCount: 2
Fore
SplineSet
404.5 879.599609375 m 1
 391.200195312 866.299804688 l 2
 385.200195312 860.299804688 381.799804688 852.200195312 381.799804688 843.700195312 c 2
 381.799804688 319.700195312 l 1
 139.900390625 861.400390625 l 2
 137.400390625 867 133.299804688 871.799804688 128.099609375 875.200195312 c 2
 114.799804688 883.799804688 l 2
 109.599609375 887.200195312 103.599609375 889 97.400390625 889 c 2
 45.7998046875 889 l 2
 37.2998046875 889 29.2001953125 885.599609375 23.2001953125 879.599609375 c 2
 9.900390625 866.400390625 l 2
 3.900390625 860.400390625 0.5 852.299804688 0.5 843.799804688 c 2
 0.5 45.2998046875 l 2
 0.5 36.7998046875 3.900390625 28.7001953125 9.900390625 22.7001953125 c 2
 23.2001953125 9.400390625 l 2
 29.2001953125 3.400390625 37.2998046875 0 45.7998046875 0 c 2
 82.2998046875 0 l 2
 90.7998046875 0 98.900390625 3.400390625 104.900390625 9.400390625 c 2
 118.200195312 22.7001953125 l 2
 124.200195312 28.7001953125 127.599609375 36.7998046875 127.599609375 45.2998046875 c 2
 127.599609375 575.299804688 l 1
 369.700195312 27.7998046875 l 2
 372.200195312 22.099609375 376.299804688 17.2998046875 381.5 13.900390625 c 2
 394.799804688 5.2001953125 l 2
 400 1.7998046875 406.099609375 0 412.299804688 0 c 2
 463.700195312 0 l 2
 472.200195312 0 480.299804688 3.400390625 486.299804688 9.400390625 c 2
 499.599609375 22.7001953125 l 2
 505.599609375 28.7001953125 509 36.7998046875 509 45.2998046875 c 2
 509 843.700195312 l 2
 509 852.200195312 505.599609375 860.299804688 499.599609375 866.299804688 c 2
 486.200195312 879.599609375 l 2
 480.200195312 885.599609375 472.099609375 889 463.599609375 889 c 2
 427.099609375 889 l 2
 418.599609375 889 410.5 885.599609375 404.5 879.599609375 c 1
EndSplineSet
Validated: 524297
EndChar

StartChar: O
Encoding: 79 79 16
Width: 635
VWidth: 0
Flags: HW
HStem: 0 125.9<128.809 379.43> 760.3 126<128.757 379.46>
VStem: 0.5 126.5<127.64 758.56> 381.2 126.899<127.64 758.615>
LayerCount: 2
Fore
SplineSet
498.700195312 769.700195312 m 6
 504.700195312 763.700195312 508 755.600585938 508.099609375 747.100585938 c 6
 508.099609375 139.200195312 l 6
 508.099609375 130.700195312 504.700195312 122.5 498.599609375 116.5 c 6
 390.5 9.2998046875 l 6
 384.5 3.2998046875 376.400390625 0 368 0 c 6
 140.599609375 0 l 6
 132.200195312 0 124.099609375 3.400390625 118.099609375 9.2998046875 c 6
 10 116.5 l 6
 3.900390625 122.5 0.5 130.700195312 0.5 139.200195312 c 6
 0.5 747 l 6
 0.5 755.5 3.900390625 763.700195312 10 769.700195312 c 6
 118.099609375 877 l 6
 124.099609375 882.900390625 132.099609375 886.299804688 140.5 886.299804688 c 6
 367.900390625 887.200195312 l 6
 376.400390625 887.200195312 384.599609375 883.799804688 390.599609375 877.799804688 c 6
 498.700195312 769.700195312 l 6
381.200195312 157.900390625 m 6
 381.200195312 728.299804688 l 6
 381.200195312 746 366.900390625 760.299804688 349.200195312 760.299804688 c 6
 159 760.299804688 l 6
 141.299804688 760.299804688 127 746 127 728.299804688 c 6
 127 157.900390625 l 6
 127 140.200195312 141.299804688 125.900390625 159 125.900390625 c 6
 349.200195312 125.900390625 l 6
 366.900390625 125.900390625 381.200195312 140.200195312 381.200195312 157.900390625 c 6
EndSplineSet
Validated: 524289
EndChar

StartChar: P
Encoding: 80 80 17
Width: 635
VWidth: 0
Flags: HW
LayerCount: 2
Fore
SplineSet
499 771.400390625 m 2
 505 765.400390625 508.299804688 757.200195312 508.400390625 748.700195312 c 2
 508.400390625 521.200195312 l 2
 508.400390625 512.700195312 505 504.599609375 499 498.599609375 c 2
 390.799804688 390.5 l 2
 384.799804688 384.5 376.700195312 381.099609375 368.200195312 381.099609375 c 2
 143.400390625 381.099609375 l 2
 134.599609375 381.099609375 127.400390625 373.900390625 127.400390625 365.099609375 c 2
 127.099609375 45.2998046875 l 2
 127.099609375 36.7998046875 123.700195312 28.7001953125 117.700195312 22.7001953125 c 2
 104.400390625 9.400390625 l 2
 98.400390625 3.400390625 90.2998046875 0 81.7998046875 0 c 2
 45.2998046875 0 l 2
 36.7998046875 0 28.7001953125 3.400390625 22.7001953125 9.400390625 c 2
 9.400390625 22.7001953125 l 2
 3.400390625 28.7001953125 0 36.7998046875 0 45.2998046875 c 2
 0 843.799804688 l 2
 0 852.299804688 3.400390625 860.400390625 9.400390625 866.400390625 c 2
 22.7001953125 879.599609375 l 2
 28.7001953125 885.599609375 36.7998046875 889 45.2998046875 889 c 2
 368.200195312 888.900390625 l 2
 376.700195312 888.900390625 384.799804688 885.5 390.799804688 879.5 c 2
 499 771.400390625 l 2
381.299804688 540 m 2
 381.299804688 731 l 2
 381.299804688 748.700195312 367 763 349.299804688 763 c 2
 143 763 l 2
 134.200195312 763 127 755.799804688 127 747 c 2
 127 524 l 2
 127 515.200195312 134.200195312 508 143 508 c 2
 349.299804688 508 l 2
 367 508 381.299804688 522.299804688 381.299804688 540 c 2
EndSplineSet
Validated: 524289
EndChar

StartChar: Q
Encoding: 81 81 18
Width: 635
VWidth: 0
Flags: HW
LayerCount: 2
Fore
SplineSet
498.599609375 770.400390625 m 6
 504.599609375 764.400390625 508 756.200195312 508.099609375 747.700195312 c 6
 508.099609375 507 l 5
 508.099609375 139.299804688 l 6
 508.099609375 130.799804688 504.700195312 122.599609375 498.599609375 116.599609375 c 6
 390.400390625 9.2998046875 l 6
 384.400390625 3.2998046875 376.299804688 0 367.900390625 0 c 6
 317.599609375 0 l 5
 317.599609375 -68.2001953125 l 6
 317.599609375 -76.7001953125 314.200195312 -84.7998046875 308.200195312 -90.7998046875 c 6
 294.900390625 -104.099609375 l 6
 288.900390625 -110.099609375 280.799804688 -113.5 272.299804688 -113.5 c 6
 235.799804688 -113.5 l 6
 227.299804688 -113.5 219.200195312 -110.099609375 213.200195312 -104.099609375 c 6
 199.900390625 -90.7998046875 l 6
 193.900390625 -84.7998046875 190.5 -76.7001953125 190.5 -68.2001953125 c 6
 190.5 0.099609375 l 5
 140.200195312 0.099609375 l 6
 131.799804688 0.099609375 123.700195312 3.5 117.700195312 9.400390625 c 6
 9.5 116.700195312 l 6
 3.400390625 122.700195312 0 130.900390625 0 139.400390625 c 6
 0 747.799804688 l 6
 0 756.299804688 3.400390625 764.400390625 9.400390625 770.400390625 c 6
 117.700195312 878.599609375 l 6
 123.700195312 884.599609375 131.799804688 888 140.299804688 888 c 6
 367.799804688 888 l 6
 376.299804688 888 384.400390625 884.599609375 390.400390625 878.599609375 c 6
 498.599609375 770.400390625 l 6
381 158 m 6
 381 729 l 6
 381 746.700195312 366.700195312 761 349 761 c 6
 158.599609375 761 l 6
 140.900390625 761 126.599609375 746.700195312 126.599609375 729 c 6
 126.599609375 158 l 6
 126.599609375 140.299804688 140.900390625 126 158.599609375 126 c 6
 190.400390625 126 l 5
 190.400390625 213 l 6
 190.400390625 221.5 193.799804688 229.599609375 199.799804688 235.599609375 c 6
 213.099609375 248.900390625 l 6
 219.099609375 254.900390625 227.200195312 258.299804688 235.700195312 258.299804688 c 6
 272.200195312 258.299804688 l 6
 280.700195312 258.299804688 288.799804688 254.900390625 294.799804688 248.900390625 c 6
 308.099609375 235.599609375 l 6
 314.099609375 229.599609375 317.5 221.5 317.5 213 c 6
 317.5 126 l 5
 349 126 l 6
 366.700195312 126 381 140.299804688 381 158 c 6
EndSplineSet
Validated: 524289
EndChar

StartChar: R
Encoding: 82 82 19
Width: 635
VWidth: 0
Flags: HW
LayerCount: 2
Fore
SplineSet
489.700195312 489.400390625 m 6
 407 406.799804688 l 6
 402.5 402.200195312 401.099609375 395.400390625 403.5 389.5 c 6
 506.200195312 132.799804688 l 6
 507.700195312 129 508.5 125 508.5 120.900390625 c 6
 508.5 45.2998046875 l 6
 508.5 36.7998046875 505.099609375 28.7001953125 499.099609375 22.7001953125 c 6
 485.799804688 9.400390625 l 6
 479.799804688 3.400390625 471.700195312 0 463.200195312 0 c 6
 426.700195312 0 l 6
 418.200195312 0 410.099609375 3.400390625 404.099609375 9.400390625 c 6
 390.799804688 22.7001953125 l 6
 384.799804688 28.7001953125 381.400390625 36.7998046875 381.400390625 45.2998046875 c 6
 380.599609375 115.299804688 l 6
 380.5 123.100585938 379 130.799804688 376.200195312 138 c 6
 288.5 360.799804688 l 6
 283.700195312 373.100585938 271.900390625 381.100585938 258.700195312 381.100585938 c 6
 143.099609375 381.100585938 l 6
 134.299804688 381.100585938 127.099609375 373.900390625 127.099609375 365.100585938 c 6
 127.099609375 45.400390625 l 6
 127.099609375 36.900390625 123.700195312 28.7998046875 117.700195312 22.7998046875 c 6
 104.400390625 9.5 l 6
 98.400390625 3.5 90.2998046875 0.1005859375 81.7998046875 0.1005859375 c 6
 45.2998046875 0.1005859375 l 6
 36.7998046875 0.1005859375 28.7001953125 3.5 22.7001953125 9.5 c 6
 9.400390625 22.7998046875 l 6
 3.400390625 28.7998046875 0 36.900390625 0 45.400390625 c 6
 0 844 l 6
 0 852.5 3.400390625 860.600585938 9.400390625 866.600585938 c 6
 22.7001953125 879.799804688 l 6
 28.7001953125 885.799804688 36.7998046875 889.200195312 45.2998046875 889.200195312 c 6
 368.200195312 889.200195312 l 6
 376.700195312 889.200195312 384.799804688 885.799804688 390.799804688 879.799804688 c 6
 499 771.5 l 6
 505 765.5 508.400390625 757.400390625 508.400390625 748.900390625 c 6
 508.400390625 534.700195312 l 6
 508.400390625 517.700195312 501.700195312 501.400390625 489.700195312 489.400390625 c 6
381.400390625 540.100585938 m 6
 381.400390625 730.299804688 l 6
 381.400390625 747.900390625 367.099609375 762.200195312 349.5 762.299804688 c 6
 143.099609375 763.100585938 l 6
 134.200195312 763.100585938 127 756 127 747.100585938 c 6
 127 524.100585938 l 6
 127 515.299804688 134.200195312 508.100585938 143 508.100585938 c 6
 349.400390625 508.100585938 l 6
 367.099609375 508.100585938 381.400390625 522.400390625 381.400390625 540.100585938 c 6
EndSplineSet
Validated: 524289
EndChar

StartChar: S
Encoding: 83 83 20
Width: 635
VWidth: 0
Flags: HW
LayerCount: 2
Fore
SplineSet
426.599609375 633.900390625 m 1
 463.099609375 633.900390625 l 2
 471.599609375 633.900390625 479.700195312 637.30078125 485.700195312 643.30078125 c 2
 499 656.600585938 l 2
 505 662.600585938 508.400390625 670.700195312 508.400390625 679.200195312 c 2
 508.400390625 747.700195312 l 2
 508.400390625 756.200195312 505 764.30078125 499 770.30078125 c 2
 390.700195312 878.5 l 2
 384.700195312 884.5 376.599609375 887.900390625 368.099609375 887.900390625 c 2
 140.599609375 887.900390625 l 2
 132.099609375 887.900390625 124 884.5 118 878.5 c 2
 9.7001953125 770.30078125 l 2
 3.7001953125 764.30078125 0.2998046875 756.200195312 0.2998046875 747.700195312 c 2
 0.2998046875 600.400390625 l 2
 0.2998046875 581.400390625 8.7001953125 563.400390625 23.2998046875 551.200195312 c 2
 369.799804688 262.5 l 2
 377.099609375 256.400390625 381.299804688 247.400390625 381.299804688 237.900390625 c 2
 381.099609375 157.80078125 l 2
 381 140.200195312 366.700195312 125.900390625 349.099609375 125.900390625 c 2
 159 125.900390625 l 2
 141.299804688 125.900390625 127 140.200195312 127 157.900390625 c 2
 127 207.600585938 l 2
 127 216.100585938 123.599609375 224.200195312 117.599609375 230.200195312 c 2
 104.299804688 243.5 l 2
 98.2998046875 249.5 90.2001953125 252.900390625 81.7001953125 252.900390625 c 2
 45.2998046875 252.900390625 l 2
 36.7998046875 252.900390625 28.7001953125 249.5 22.7001953125 243.5 c 2
 9.400390625 230.30078125 l 2
 3.400390625 224.30078125 0 216.200195312 0 207.700195312 c 2
 0 139.30078125 l 2
 0 130.80078125 3.400390625 122.600585938 9.5 116.600585938 c 2
 117.700195312 9.30078125 l 2
 123.700195312 3.400390625 131.799804688 0 140.200195312 0 c 2
 367.799804688 0 l 2
 376.200195312 0 384.299804688 3.30078125 390.299804688 9.30078125 c 2
 498.799804688 116.600585938 l 2
 504.900390625 122.600585938 508.299804688 130.80078125 508.299804688 139.30078125 c 2
 508.299804688 286.400390625 l 2
 508.299804688 305.400390625 499.900390625 323.400390625 485.299804688 335.600585938 c 2
 138.799804688 624.30078125 l 2
 131.5 630.400390625 127.299804688 639.400390625 127.299804688 648.900390625 c 2
 127.299804688 728.900390625 l 2
 127.299804688 746.600585938 141.599609375 760.900390625 159.299804688 760.900390625 c 2
 349.299804688 760.900390625 l 2
 367 760.900390625 381.299804688 746.600585938 381.299804688 728.900390625 c 2
 381.299804688 679.200195312 l 2
 381.299804688 670.700195312 384.700195312 662.600585938 390.700195312 656.600585938 c 2
 404 643.30078125 l 2
 410 637.30078125 418.099609375 633.900390625 426.599609375 633.900390625 c 1
EndSplineSet
Validated: 524297
EndChar

StartChar: T
Encoding: 84 84 21
Width: 635
VWidth: 0
Flags: HW
HStem: 0 21G<231.55 276.55> 0 21G<231.55 276.55> 763 126<10.2316 190.5 317.6 497.76>
VStem: 190.5 127.1<10.2316 763>
LayerCount: 2
Fore
SplineSet
508 857 m 5xb0
 508.099609375 857 l 5
 508.099609375 808.299804688 l 6
 508.099609375 799.799804688 504.700195312 791.700195312 498.700195312 785.700195312 c 6
 485.400390625 772.400390625 l 6
 479.400390625 766.400390625 471.299804688 763 462.799804688 763 c 6
 333.599609375 763 l 6
 324.799804688 763 317.599609375 755.799804688 317.599609375 747 c 6
 317.599609375 45.2998046875 l 6
 317.599609375 36.7998046875 314.200195312 28.7001953125 308.200195312 22.7001953125 c 6
 294.900390625 9.400390625 l 6
 288.900390625 3.400390625 280.799804688 0 272.299804688 0 c 6
 235.799804688 0 l 6
 227.299804688 0 219.200195312 3.400390625 213.200195312 9.400390625 c 6
 199.900390625 22.7001953125 l 6
 193.900390625 28.7001953125 190.5 36.7998046875 190.5 45.2998046875 c 6
 190.5 747 l 6
 190.5 755.799804688 183.299804688 763 174.5 763 c 6
 45.2998046875 763 l 6
 36.7998046875 763 28.7001953125 766.400390625 22.7001953125 772.400390625 c 6
 9.400390625 785.700195312 l 6
 3.400390625 791.700195312 0 799.799804688 0 808.299804688 c 6
 0 843.799804688 l 6
 0 852.299804688 3.400390625 860.400390625 9.400390625 866.400390625 c 6
 22.7001953125 879.599609375 l 6
 28.7001953125 885.599609375 36.7998046875 889 45.2998046875 889 c 6
 190.5 889 l 5
 317.5 889 l 5
 462.799804688 889 l 6
 471.299804688 889 479.400390625 885.599609375 485.400390625 879.599609375 c 6
 508 857 l 5xb0
EndSplineSet
Validated: 524289
EndChar

StartChar: U
Encoding: 85 85 22
Width: 635
VWidth: 0
Flags: HW
LayerCount: 2
Fore
SplineSet
463.099609375 888 m 1
 426.599609375 888 l 2
 418.099609375 888 410 884.599609375 404 878.599609375 c 2
 390.700195312 865.299804688 l 2
 384.700195312 859.299804688 381.299804688 851.200195312 381.299804688 842.700195312 c 2
 381.299804688 158 l 2
 381.299804688 140.299804688 367 126 349.299804688 126 c 2
 159.299804688 126 l 2
 141.599609375 126 127.299804688 140.299804688 127.299804688 158 c 2
 127 842.799804688 l 2
 127 851.299804688 123.599609375 859.400390625 117.599609375 865.400390625 c 2
 104.400390625 878.599609375 l 2
 98.400390625 884.599609375 90.2998046875 888 81.7998046875 888 c 2
 45.2998046875 888 l 2
 36.7998046875 888 28.7001953125 884.599609375 22.7001953125 878.599609375 c 2
 9.400390625 865.400390625 l 2
 3.400390625 859.400390625 0 851.299804688 0 842.799804688 c 2
 0 139.400390625 l 2
 0 130.900390625 3.400390625 122.700195312 9.5 116.700195312 c 2
 118 9.2998046875 l 2
 124 3.400390625 132.099609375 0 140.5 0 c 2
 368.200195312 0 l 2
 376.599609375 0 384.700195312 3.2998046875 390.700195312 9.2998046875 c 2
 498.900390625 116.599609375 l 2
 505 122.599609375 508.400390625 130.799804688 508.400390625 139.299804688 c 2
 508.400390625 842.700195312 l 2
 508.400390625 851.200195312 505 859.299804688 499 865.299804688 c 2
 485.700195312 878.599609375 l 2
 479.700195312 884.599609375 471.599609375 888 463.099609375 888 c 1
EndSplineSet
Validated: 524297
EndChar

StartChar: V
Encoding: 86 86 23
Width: 635
VWidth: 0
Flags: HW
LayerCount: 2
Fore
SplineSet
3.2998046875 467.099609375 m 6
 1.099609375 473.700195312 0 480.599609375 0 487.5 c 6
 0 843.700195312 l 6
 0 852.200195312 3.400390625 860.299804688 9.400390625 866.299804688 c 6
 22.599609375 879.599609375 l 6
 28.599609375 885.599609375 36.7001953125 889 45.2001953125 889 c 6
 81.7001953125 889 l 6
 90.2001953125 889 98.2998046875 885.599609375 104.299804688 879.599609375 c 6
 117.599609375 866.299804688 l 6
 123.599609375 860.299804688 127 852.200195312 127 843.700195312 c 6
 127 507.700195312 l 6
 127 500.799804688 128.099609375 493.900390625 130.299804688 487.299804688 c 6
 254 119.299804688 l 5
 377.700195312 487.299804688 l 6
 379.900390625 493.900390625 381 500.799804688 381 507.700195312 c 6
 381 843.700195312 l 6
 381 852.200195312 384.400390625 860.299804688 390.400390625 866.299804688 c 6
 403.700195312 879.599609375 l 6
 409.700195312 885.599609375 417.799804688 889 426.299804688 889 c 6
 462.799804688 889 l 6
 471.299804688 889 479.400390625 885.599609375 485.400390625 879.599609375 c 6
 498.700195312 866.299804688 l 6
 504.700195312 860.299804688 508.099609375 852.200195312 508.099609375 843.700195312 c 6
 508.099609375 487.400390625 l 6
 508.099609375 480.5 507 473.599609375 504.799804688 467 c 6
 355.200195312 21.7998046875 l 6
 350.799804688 8.7998046875 338.599609375 0 324.900390625 0 c 6
 183.200195312 0 l 6
 169.5 0 157.200195312 8.7998046875 152.900390625 21.7998046875 c 6
 3.2998046875 467.099609375 l 6
EndSplineSet
Validated: 524289
EndChar

StartChar: W
Encoding: 87 87 24
Width: 635
VWidth: 0
Flags: HW
LayerCount: 2
Fore
SplineSet
505.900390625 630 m 6
 505.900390625 837.200195312 l 6
 505.900390625 845.700195312 509.299804688 853.799804688 515.299804688 859.799804688 c 6
 528.599609375 873.099609375 l 6
 534.599609375 879.099609375 542.700195312 882.5 551.200195312 882.5 c 6
 587.700195312 882.5 l 6
 596.200195312 882.5 604.299804688 879.099609375 610.299804688 873.099609375 c 6
 623.599609375 859.799804688 l 6
 629.599609375 853.799804688 633 845.700195312 633 837.200195312 c 6
 633 622.799804688 l 6
 633 621.5 632.900390625 620.299804688 632.799804688 619.099609375 c 6
 566 40.400390625 l 6
 565.099609375 32.599609375 561.400390625 25.400390625 555.5 20.2001953125 c 6
 541.900390625 8.099609375 l 6
 536 2.900390625 528.5 0 520.599609375 0 c 6
 460.5 0 l 6
 453.5 0 446.799804688 2.2998046875 441.200195312 6.5 c 6
 427.5 16.7998046875 l 6
 421.900390625 21 417.900390625 26.900390625 416 33.599609375 c 6
 316.5 385.900390625 l 5
 217 33.599609375 l 6
 215.099609375 26.900390625 211.099609375 21 205.5 16.7998046875 c 6
 191.799804688 6.5 l 6
 186.200195312 2.2998046875 179.5 0 172.5 0 c 6
 112.400390625 0 l 6
 104.5 0 97 2.900390625 91.099609375 8.099609375 c 6
 77.5 20.2001953125 l 6
 71.599609375 25.400390625 67.900390625 32.599609375 67 40.400390625 c 6
 0.2001953125 619.099609375 l 6
 0.099609375 620.299804688 0 621.599609375 0 622.799804688 c 6
 0 837.299804688 l 6
 0 845.799804688 3.400390625 853.900390625 9.400390625 859.900390625 c 6
 22.7001953125 873.099609375 l 6
 28.7001953125 879.099609375 36.7998046875 882.5 45.2998046875 882.5 c 6
 81.7998046875 882.5 l 6
 90.2998046875 882.5 98.400390625 879.099609375 104.400390625 873.099609375 c 6
 117.5 859.799804688 l 6
 123.5 853.799804688 126.900390625 845.700195312 126.900390625 837.200195312 c 6
 126.900390625 630.099609375 l 6
 126.900390625 628.799804688 127 627.599609375 127.099609375 626.400390625 c 6
 163.400390625 311.799804688 l 5
 244.099609375 597.400390625 l 6
 246 604.099609375 250 610 255.599609375 614.200195312 c 6
 269.299804688 624.5 l 6
 274.900390625 628.700195312 281.599609375 631 288.599609375 631 c 6
 344.200195312 631 l 6
 351.200195312 631 357.900390625 628.700195312 363.5 624.5 c 6
 377.200195312 614.099609375 l 6
 382.799804688 609.900390625 386.799804688 604 388.700195312 597.299804688 c 6
 469.400390625 311.700195312 l 5
 505.700195312 626.299804688 l 6
 505.799804688 627.5 505.900390625 628.799804688 505.900390625 630 c 6
EndSplineSet
Validated: 524289
EndChar

StartChar: X
Encoding: 88 88 25
Width: 635
VWidth: 0
Flags: HW
LayerCount: 2
Fore
SplineSet
508 749.399414062 m 6
 508 736.799804688 504.299804688 724.399414062 497.299804688 713.899414062 c 6
 331.700195312 444.299804688 l 5
 497.400390625 174.700195312 l 6
 504.400390625 164.200195312 508.099609375 151.899414062 508.099609375 139.299804688 c 6
 508.099609375 45.099609375 l 6
 508.099609375 36.599609375 504.700195312 28.5 498.700195312 22.5 c 6
 485.400390625 9.2001953125 l 6
 479.400390625 3.2001953125 471.299804688 -0.2001953125 462.799804688 -0.2001953125 c 6
 426.299804688 -0.2001953125 l 6
 417.799804688 -0.2001953125 409.700195312 3.2001953125 403.700195312 9.2001953125 c 6
 390.400390625 22.5 l 6
 384.400390625 28.5 381 36.599609375 381 45.099609375 c 6
 381 109.099609375 l 6
 381 115.5 379.099609375 121.700195312 375.5 127 c 6
 254 328.399414062 l 5
 132.599609375 126.899414062 l 6
 129 121.599609375 127.099609375 115.399414062 127.099609375 109 c 6
 127.099609375 45 l 6
 127.099609375 36.5 123.700195312 28.3994140625 117.700195312 22.3994140625 c 6
 104.400390625 9.099609375 l 6
 98.400390625 3.099609375 90.2998046875 -0.2998046875 81.7998046875 -0.2998046875 c 6
 45.2998046875 -0.2998046875 l 6
 36.7998046875 -0.2998046875 28.7001953125 3.099609375 22.7001953125 9.099609375 c 6
 9.400390625 22.3994140625 l 6
 3.400390625 28.3994140625 0 36.5 0 45 c 6
 0 139.200195312 l 6
 0 151.799804688 3.7001953125 164.200195312 10.7001953125 174.700195312 c 6
 176.299804688 444.399414062 l 5
 10.7001953125 714 l 6
 3.7001953125 724.5 0 736.799804688 0 749.399414062 c 6
 0 843.599609375 l 6
 0 852.099609375 3.400390625 860.200195312 9.400390625 866.200195312 c 6
 22.7001953125 879.399414062 l 6
 28.7001953125 885.399414062 36.7998046875 888.799804688 45.2998046875 888.799804688 c 6
 81.7998046875 888.799804688 l 6
 90.2998046875 888.799804688 98.400390625 885.399414062 104.400390625 879.399414062 c 6
 117.599609375 866.200195312 l 6
 123.599609375 860.200195312 127 852.099609375 127 843.599609375 c 6
 127 779.599609375 l 6
 127 773.200195312 128.900390625 767 132.5 761.700195312 c 6
 254 560.200195312 l 5
 375.5 761.599609375 l 6
 379.099609375 766.899414062 381 773.099609375 381 779.5 c 6
 381 843.5 l 6
 381 852 384.400390625 860.099609375 390.400390625 866.099609375 c 6
 403.700195312 879.399414062 l 6
 409.700195312 885.399414062 417.799804688 888.799804688 426.299804688 888.799804688 c 6
 462.799804688 888.799804688 l 6
 471.299804688 888.799804688 479.400390625 885.399414062 485.400390625 879.399414062 c 6
 498.599609375 866.099609375 l 6
 504.599609375 860.099609375 508 852 508 843.5 c 6
 508 749.399414062 l 6
EndSplineSet
Validated: 524289
EndChar

StartChar: Y
Encoding: 89 89 26
Width: 635
VWidth: 0
Flags: HW
LayerCount: 2
Fore
SplineSet
498.599609375 866.400390625 m 6
 504.599609375 860.400390625 508 852.200195312 508 843.700195312 c 6
 508 749.5 l 6
 508 736.900390625 504.299804688 724.599609375 497.299804688 714.099609375 c 6
 322.700195312 379.200195312 l 6
 319.299804688 372.599609375 317.5 365.299804688 317.5 357.900390625 c 6
 317.5 45.2998046875 l 6
 317.5 36.7998046875 314.099609375 28.7001953125 308.099609375 22.7001953125 c 6
 294.799804688 9.400390625 l 6
 288.799804688 3.400390625 280.700195312 0 272.200195312 0 c 6
 254 0 l 5
 235.799804688 0 l 6
 227.299804688 0 219.200195312 3.400390625 213.200195312 9.400390625 c 6
 199.900390625 22.7001953125 l 6
 193.900390625 28.7001953125 190.5 36.7998046875 190.5 45.2998046875 c 6
 190.5 358 l 6
 190.5 365.400390625 188.700195312 372.700195312 185.299804688 379.299804688 c 6
 10.7001953125 714.200195312 l 6
 3.7001953125 724.700195312 0 737 0 749.599609375 c 6
 0 843.799804688 l 6
 0 852.299804688 3.400390625 860.400390625 9.400390625 866.400390625 c 6
 22.7001953125 879.599609375 l 6
 28.7001953125 885.599609375 36.7998046875 889 45.2998046875 889 c 6
 81.7998046875 889 l 6
 90.2998046875 889 98.400390625 885.599609375 104.400390625 879.599609375 c 6
 117.599609375 866.400390625 l 6
 123.599609375 860.400390625 127 852.299804688 127 843.799804688 c 6
 127 779.799804688 l 6
 127 773.400390625 128.900390625 767.200195312 132.5 761.900390625 c 6
 254 509.799804688 l 5
 375.5 761.799804688 l 6
 379.099609375 767.099609375 381 773.299804688 381 779.700195312 c 6
 381 843.700195312 l 6
 381 852.200195312 384.400390625 860.299804688 390.400390625 866.299804688 c 6
 403.700195312 879.599609375 l 6
 409.700195312 885.599609375 417.799804688 889 426.299804688 889 c 6
 462.799804688 889 l 6
 471.299804688 889 479.400390625 885.599609375 485.400390625 879.599609375 c 6
 498.599609375 866.400390625 l 6
EndSplineSet
Validated: 524289
EndChar

StartChar: Z
Encoding: 90 90 27
Width: 635
VWidth: 0
Flags: HW
LayerCount: 2
Fore
SplineSet
22.599609375 882.599609375 m 6
 28.599609375 888.599609375 36.7998046875 892 45.2998046875 892 c 6
 464.299804688 892 l 6
 472.799804688 892 480.900390625 888.599609375 486.900390625 882.599609375 c 6
 500.099609375 869.299804688 l 6
 506.099609375 863.299804688 509.5 855.200195312 509.5 846.700195312 c 6
 509.5 775 l 6
 509.5 769.5 508.099609375 764.099609375 505.400390625 759.299804688 c 6
 161 149.400390625 l 6
 154.900390625 138.700195312 162.700195312 125.5 174.900390625 125.5 c 6
 464.299804688 125.5 l 6
 472.799804688 125.5 480.900390625 122.099609375 486.900390625 116.099609375 c 6
 500.200195312 102.799804688 l 6
 506.200195312 96.7998046875 509.599609375 88.7001953125 509.599609375 80.2001953125 c 6
 509.599609375 45.2998046875 l 6
 509.599609375 36.7998046875 506.200195312 28.7001953125 500.200195312 22.7001953125 c 6
 486.900390625 9.400390625 l 6
 480.900390625 3.400390625 472.799804688 0 464.299804688 0 c 6
 45.2998046875 0 l 6
 36.7998046875 0 28.7001953125 3.400390625 22.7001953125 9.400390625 c 6
 9.400390625 22.7001953125 l 6
 3.400390625 28.7001953125 0 36.7998046875 0 45.2998046875 c 6
 0 117 l 6
 0 122.5 1.400390625 128 4.2001953125 132.799804688 c 6
 351.5 742.700195312 l 6
 357.599609375 753.299804688 349.900390625 766.599609375 337.599609375 766.599609375 c 6
 45.2998046875 766.599609375 l 6
 36.7998046875 766.599609375 28.7001953125 770 22.7001953125 776 c 6
 9.400390625 789.299804688 l 6
 3.400390625 795.299804688 0 803.400390625 0 811.900390625 c 6
 0 846.799804688 l 6
 0 855.299804688 3.400390625 863.400390625 9.400390625 869.400390625 c 6
 22.599609375 882.599609375 l 6
EndSplineSet
Validated: 524289
EndChar

StartChar: zero
Encoding: 48 48 28
Width: 635
VWidth: 0
Flags: HW
LayerCount: 2
Fore
SplineSet
498.599609375 771 m 2
 504.599609375 765 508 756.899414062 508 748.399414062 c 2
 508 140 l 2
 508 131.5 504.599609375 123.299804688 498.5 117.299804688 c 2
 390.299804688 10 l 2
 384.299804688 4 376.200195312 0.69921875 367.799804688 0.69921875 c 2
 140.200195312 0.69921875 l 2
 131.799804688 0.69921875 123.700195312 4.099609375 117.700195312 10 c 2
 9.5 117.299804688 l 2
 3.400390625 123.299804688 0 131.5 0 140 c 2
 0 748.299804688 l 2
 0 756.799804688 3.400390625 765 9.5 771 c 2
 117.700195312 878.399414062 l 2
 123.700195312 884.299804688 131.700195312 887.69921875 140.099609375 887.69921875 c 2
 367.599609375 888.599609375 l 2
 376.200195312 888.599609375 384.400390625 885.19921875 390.400390625 879.19921875 c 2
 498.599609375 771 l 2
158.700195312 761.599609375 m 2
 141 761.599609375 126.700195312 747.299804688 126.700195312 729.599609375 c 2
 126.700195312 708.099609375 l 1
 381 373.19921875 l 1
 381 729.599609375 l 2
 381 747.299804688 366.700195312 761.599609375 349 761.599609375 c 2
 158.700195312 761.599609375 l 2
349 126.599609375 m 2
 366.700195312 126.599609375 381 141 381 158.599609375 c 2
 381 165.5 l 1
 126.700195312 500.399414062 l 1
 126.700195312 158.599609375 l 2
 126.700195312 140.899414062 141 126.599609375 158.700195312 126.599609375 c 2
 349 126.599609375 l 2
EndSplineSet
Validated: 524289
EndChar

StartChar: one
Encoding: 49 49 29
Width: 635
VWidth: 0
Flags: HW
LayerCount: 2
Fore
SplineSet
283 887 m 1
 93 887 l 2
 75.2998046875 887 61 872.700195312 61 855 c 2
 61 792 l 2
 61 774.30078125 75.2998046875 760 93 760 c 2
 172 760 l 2
 180.799804688 760 188 752.80078125 188 744 c 2
 188 30 l 2
 188 12.30078125 202.299804688 -2 220 -2 c 2
 283 -2 l 2
 300.700195312 -2 315 12.30078125 315 30 c 2
 315 733.5 l 1
 315 855 l 6
 315 872.700195312 300.700195312 887 283 887 c 1
76 887 m 1025
EndSplineSet
Validated: 524297
EndChar

StartChar: two
Encoding: 50 50 30
Width: 635
VWidth: 0
Flags: HW
LayerCount: 2
Fore
SplineSet
508.299804688 554.099609375 m 1
 508.299804688 748.700195312 l 2
 508.299804688 757.200195312 504.900390625 765.400390625 498.900390625 771.400390625 c 2
 390.400390625 879.700195312 l 2
 384.400390625 885.700195312 376.299804688 889 367.799804688 889 c 2
 140.299804688 889 l 2
 131.799804688 889 123.700195312 885.599609375 117.700195312 879.599609375 c 2
 9.400390625 771.400390625 l 2
 3.400390625 765.400390625 0 757.299804688 0 748.799804688 c 2
 0 667 l 2
 0 649.299804688 14.2998046875 635 32 635 c 2
 95 635 l 2
 112.700195312 635 127 649.299804688 127 667 c 2
 127 730 l 2
 127 747.700195312 141.299804688 762 159 762 c 2
 349.099609375 762 l 2
 366.700195312 762 381.099609375 747.700195312 381.099609375 730.099609375 c 2
 381.400390625 609.299804688 l 2
 381.400390625 600.200195312 377.5 591.5 370.700195312 585.5 c 2
 21.7001953125 273.200195312 l 2
 8.099609375 260.900390625 0.2998046875 243.599609375 0.2998046875 225.400390625 c 2
 0.2998046875 33 l 2
 0.2998046875 15.2998046875 14.599609375 1 32.2998046875 1 c 2
 476.299804688 1 l 2
 494 1 508.299804688 15.2998046875 508.299804688 33 c 2
 508.299804688 95 l 2
 508.299804688 112.700195312 494 127 476.299804688 127 c 2
 143.299804688 127 l 2
 134.5 127 127.299804688 134.200195312 127.299804688 143 c 2
 127.299804688 170.200195312 l 2
 127.299804688 188.400390625 135.099609375 205.799804688 148.599609375 217.900390625 c 2
 497.599609375 530.200195312 l 2
 504.5 536.299804688 508.299804688 545 508.299804688 554.099609375 c 1
EndSplineSet
Validated: 524297
EndChar

StartChar: three
Encoding: 51 51 31
Width: 635
VWidth: 0
Flags: HW
LayerCount: 2
Fore
SplineSet
367.700195312 889 m 1
 140.299804688 889 l 2
 131.799804688 889 123.700195312 885.600585938 117.700195312 879.600585938 c 2
 9.7998046875 771.80078125 l 2
 3.5 765.5 0.2001953125 757 0.400390625 748.200195312 c 2
 1 667.5 l 2
 1 649.80078125 15.2998046875 635.5 33 635.5 c 2
 95 635.5 l 2
 112.700195312 635.5 127 649.80078125 127 667.5 c 2
 127 731 l 2
 127 748.700195312 141.299804688 763 159 763 c 2
 349 763 l 2
 366.700195312 763 381 748.700195312 381 731 c 2
 381 540 l 2
 381 522.30078125 366.700195312 508 349 508 c 2
 159 508 l 2
 141.299804688 508 127 493.700195312 127 476 c 2
 127 414 l 2
 127 396.30078125 141.299804688 382 159 382 c 2
 381 382 l 1
 381 381 l 1
 381 159 l 2
 381 141.30078125 366.700195312 127 349 127 c 2
 159 127 l 2
 141.299804688 127 127 141.30078125 127 159 c 2
 127 221.200195312 l 2
 127 238.900390625 112.700195312 253.200195312 95 253.200195312 c 2
 33 253.200195312 l 2
 15.2998046875 253.200195312 1 238.900390625 1 221.200195312 c 2
 1 158.5 l 2
 0.400390625 138.400390625 8.099609375 118.900390625 22.2998046875 104.700195312 c 2
 117.599609375 9.400390625 l 2
 123.599609375 3.400390625 131.700195312 0 140.200195312 0 c 2
 367.700195312 0 l 2
 376.200195312 0 384.299804688 3.400390625 390.299804688 9.400390625 c 2
 498.599609375 117.700195312 l 2
 504.599609375 123.700195312 508 131.80078125 508 140.30078125 c 2
 508 367.80078125 l 2
 508 376.30078125 504.599609375 384.400390625 498.599609375 390.400390625 c 2
 444.5 444.5 l 1
 498.599609375 498.600585938 l 2
 504.599609375 504.600585938 508 512.700195312 508 521.200195312 c 2
 508 748.80078125 l 2
 508 757.30078125 504.599609375 765.400390625 498.599609375 771.400390625 c 2
 390.400390625 879.700195312 l 2
 384.400390625 885.700195312 376.200195312 889 367.700195312 889 c 1
EndSplineSet
Validated: 524329
EndChar

StartChar: four
Encoding: 52 52 32
Width: 635
VWidth: 0
Flags: HW
LayerCount: 2
Fore
SplineSet
476 252.200195312 m 5
 460 252.200195312 l 6
 451.200195312 252.200195312 444 259.400390625 444 268.200195312 c 6
 444 474.700195312 l 6
 444 492.400390625 429.700195312 506.700195312 412 506.700195312 c 6
 349 506.700195312 l 6
 331.299804688 506.700195312 317 492.400390625 317 474.700195312 c 6
 317 268.200195312 l 6
 317 259.400390625 309.799804688 252.200195312 301 252.200195312 c 6
 142.099609375 252.200195312 l 6
 133.700195312 252.200195312 127 259 127 267.299804688 c 6
 127 309.200195312 l 5
 379.200195312 865.400390625 l 6
 384 876 376.200195312 888 364.599609375 888 c 6
 270.599609375 888 l 6
 258 888 246.599609375 880.700195312 241.5 869.200195312 c 6
 5.7001953125 349.299804688 l 6
 1.900390625 341 0 332 0 322.900390625 c 6
 0 309.700195312 l 5
 0 189 l 5
 0 157.200195312 l 6
 0 140.299804688 14.2998046875 126 32 126 c 6
 301.299804688 126 l 6
 310.099609375 126 317.299804688 118.799804688 317.299804688 110 c 6
 317.299804688 31 l 6
 317.299804688 13.2998046875 331.599609375 -1 349.299804688 -1 c 6
 412 -1 l 6
 429.700195312 -1 444 13.2998046875 444 31 c 6
 444 110 l 6
 444 118.799804688 451.200195312 126 460 126 c 6
 476 126 l 6
 493.700195312 126 508 140.299804688 508 158 c 6
 508 220.299804688 l 6
 508 237.900390625 493.700195312 252.200195312 476 252.200195312 c 5
EndSplineSet
Validated: 524297
EndChar

StartChar: five
Encoding: 53 53 33
Width: 635
VWidth: 0
Flags: HW
LayerCount: 2
Fore
SplineSet
157.900390625 756.400390625 m 5
 441.099609375 756.400390625 l 6
 458.599609375 756.400390625 472.900390625 770.599609375 472.900390625 788.200195312 c 6
 472.900390625 849.700195312 l 6
 472.900390625 867.200195312 458.700195312 881.5 441.099609375 881.5 c 6
 32.7001953125 881.5 l 6
 15.2001953125 881.5 1 867.299804688 0.900390625 849.799804688 c 6
 0 453.400390625 l 6
 0 444.900390625 3.2998046875 436.799804688 9.2998046875 430.900390625 c 6
 53.7001953125 386.5 l 6
 59.7001953125 380.5 67.7998046875 377.200195312 76.2998046875 377.200195312 c 6
 346.400390625 378.099609375 l 6
 364 378.200195312 378.299804688 363.900390625 378.299804688 346.299804688 c 6
 378.299804688 156.799804688 l 6
 378.299804688 139.299804688 364.099609375 125 346.5 125 c 6
 157.400390625 125 l 6
 140.099609375 125 126.099609375 139 126.099609375 156.299804688 c 6
 126.099609375 219.299804688 l 6
 126.099609375 236.799804688 111.900390625 251.099609375 94.2998046875 251.099609375 c 6
 32.2998046875 251.099609375 l 6
 14.900390625 251.099609375 0.7998046875 237.200195312 0.5 219.799804688 c 6
 0.2001953125 138.299804688 l 6
 0.099609375 129.799804688 3.400390625 121.599609375 9.400390625 115.599609375 c 6
 116.900390625 9 l 6
 122.799804688 3.2001953125 130.700195312 -0.099609375 138.900390625 -0.099609375 c 6
 365.099609375 -0.099609375 l 6
 373.5 -0.099609375 381.5 3.2001953125 387.5 9.099609375 c 6
 495 115.700195312 l 6
 501 121.700195312 504.400390625 129.799804688 504.400390625 138.299804688 c 6
 504.400390625 427 l 6
 504.400390625 435.400390625 501.099609375 443.5 495.099609375 449.5 c 6
 450.700195312 493.900390625 l 6
 444.700195312 499.900390625 436.700195312 503.200195312 428.200195312 503.200195312 c 6
 157.900390625 503.200195312 l 6
 140.400390625 503.200195312 126.099609375 517.400390625 126.099609375 535 c 6
 126.099609375 724.599609375 l 6
 126.099609375 742.200195312 140.299804688 756.400390625 157.900390625 756.400390625 c 5
EndSplineSet
Validated: 524329
EndChar

StartChar: six
Encoding: 54 54 34
Width: 635
VWidth: 0
Flags: HW
LayerCount: 2
Fore
SplineSet
159 762 m 2
 141.299804688 762 127 747.600585938 127 730 c 2
 127 524 l 2
 127 515.200195312 134.200195312 508 143 508 c 2
 431.200195312 507.900390625 l 2
 439.700195312 507.900390625 447.799804688 504.5 453.799804688 498.5 c 2
 498.599609375 453.80078125 l 2
 504.599609375 447.80078125 508 439.700195312 508 431.200195312 c 2
 508 127 l 1
 390.400390625 9.400390625 l 2
 384.299804688 3.30078125 376.099609375 0 367.599609375 0 c 2
 140.099609375 -0.099609375 l 2
 131.700195312 0 123.700195312 3.30078125 117.700195312 9.2001953125 c 2
 9.5 117.600585938 l 2
 3.400390625 123.600585938 0 131.80078125 0 140.30078125 c 2
 0 748.700195312 l 2
 0 757.200195312 3.400390625 765.30078125 9.400390625 771.30078125 c 2
 117.5 879.5 l 2
 123.599609375 885.600585938 131.799804688 888.900390625 140.299804688 888.900390625 c 2
 367.900390625 888 l 2
 376.299804688 887.900390625 384.299804688 884.600585938 390.299804688 878.700195312 c 2
 499.200195312 771.5 l 2
 505.299804688 765.400390625 508.599609375 757.200195312 508.5 748.600585938 c 2
 508.200195312 666.30078125 l 2
 507.900390625 648.80078125 493.700195312 634.80078125 476.200195312 634.80078125 c 2
 413 634.80078125 l 2
 395.299804688 634.80078125 381.099609375 648.80078125 381.099609375 666.5 c 2
 381 730.5 l 2
 381 747.900390625 366.900390625 762 349.5 762 c 2
 159 762 l 2
159 382 m 2
 141.299804688 382 127 367.700195312 127 350 c 2
 127 159 l 2
 127 141.30078125 141.299804688 127 159 127 c 2
 349 127 l 2
 366.700195312 127 381 141.30078125 381 159 c 2
 381 350 l 2
 381 367.700195312 366.700195312 382 349 382 c 2
 159 382 l 2
EndSplineSet
Validated: 524289
EndChar

StartChar: seven
Encoding: 55 55 35
Width: 635
VWidth: 0
Flags: HW
LayerCount: 2
Fore
SplineSet
0 844.5 m 1
 0 781.5 l 2
 0 763.799804688 14.2998046875 749.5 32 749.5 c 2
 355.099609375 749.5 l 2
 367 749.5 374.700195312 737 369.400390625 726.299804688 c 2
 133.799804688 177 l 2
 129.400390625 168.099609375 127 158.299804688 127 148.400390625 c 2
 127 32 l 2
 127 14.2998046875 141.299804688 0 159 0 c 2
 222 0 l 2
 239.700195312 0 254 14.2998046875 254 32 c 2
 254 148.400390625 l 2
 254 158.299804688 256.299804688 168.099609375 260.799804688 177 c 2
 501.299804688 736 l 2
 505.700195312 744.900390625 508.099609375 754.700195312 508.099609375 764.599609375 c 2
 508.099609375 844.5 l 2
 508.099609375 862.200195312 493.799804688 876.5 476.099609375 876.5 c 2
 32 876.5 l 2
 14.2998046875 876.5 0 862.200195312 0 844.5 c 1
EndSplineSet
Validated: 524297
EndChar

StartChar: eight
Encoding: 56 56 36
Width: 635
VWidth: 0
Flags: HW
LayerCount: 2
Fore
SplineSet
498.599609375 498.600585938 m 6
 455.900390625 455.700195312 l 6
 449.700195312 449.5 449.700195312 439.30078125 455.900390625 433.100585938 c 6
 498.700195312 390.30078125 l 6
 504.700195312 384.30078125 508.099609375 376.200195312 508.099609375 367.700195312 c 6
 508.099609375 140.200195312 l 6
 508.099609375 131.700195312 504.700195312 123.600585938 498.700195312 117.600585938 c 6
 390.5 9.400390625 l 6
 384.400390625 3.30078125 376.200195312 0 367.700195312 0 c 6
 140.099609375 0.900390625 l 6
 131.700195312 0.900390625 123.700195312 4.30078125 117.700195312 10.2001953125 c 6
 9.5 117.600585938 l 6
 3.400390625 123.600585938 0 131.80078125 0 140.30078125 c 6
 0 367.700195312 l 6
 0 376.200195312 3.400390625 384.30078125 9.400390625 390.30078125 c 6
 52.2001953125 433.200195312 l 6
 58.400390625 439.400390625 58.400390625 449.600585938 52.2001953125 455.80078125 c 6
 9.400390625 498.600585938 l 6
 3.400390625 504.600585938 0 512.700195312 0 521.200195312 c 6
 0 748.700195312 l 6
 0 757.200195312 3.400390625 765.30078125 9.400390625 771.30078125 c 6
 117.5 879.5 l 6
 123.599609375 885.600585938 131.799804688 888.900390625 140.299804688 888.900390625 c 6
 367.900390625 888 l 6
 376.299804688 888 384.299804688 884.600585938 390.299804688 878.700195312 c 6
 498.5 771.30078125 l 6
 504.599609375 765.30078125 508 757.100585938 508 748.600585938 c 6
 508 521.200195312 l 6
 508 512.700195312 504.599609375 504.600585938 498.599609375 498.600585938 c 6
381 159 m 6
 381 353.30078125 l 6
 381 371 366.700195312 385.30078125 349 385.30078125 c 6
 159 385.30078125 l 6
 141.299804688 385.30078125 127 371 127 353.30078125 c 6
 127 159 l 6
 127 141.30078125 141.299804688 127 159 127 c 6
 349 127 l 6
 366.700195312 127 381 141.30078125 381 159 c 6
381 543.30078125 m 6
 381 729.900390625 l 6
 381 747.600585938 366.700195312 761.900390625 349 761.900390625 c 6
 158.200195312 761.900390625 l 6
 140.5 761.900390625 126.099609375 747.5 126.200195312 729.80078125 c 6
 126.900390625 543.200195312 l 6
 127 525.5 141.299804688 511.30078125 158.900390625 511.30078125 c 6
 349 511.30078125 l 6
 366.700195312 511.30078125 381 525.600585938 381 543.30078125 c 6
EndSplineSet
Validated: 524321
EndChar

StartChar: nine
Encoding: 57 57 37
Width: 635
VWidth: 0
Flags: HW
LayerCount: 2
Fore
SplineSet
507 748 m 6
 508.099609375 139.400390625 l 6
 508.099609375 130.900390625 504.700195312 122.700195312 498.700195312 116.700195312 c 6
 390.5 8.5 l 6
 384.400390625 2.400390625 376.200195312 -0.8994140625 367.700195312 -0.8994140625 c 6
 140.099609375 0 l 6
 131.700195312 0 123.700195312 3.400390625 117.700195312 9.2998046875 c 6
 9.5 116.700195312 l 6
 3.400390625 122.700195312 0 130.900390625 0 139.400390625 c 6
 0 221.100585938 l 6
 0 238.799804688 14.2998046875 253.100585938 32 253.100585938 c 6
 94.2001953125 253.100585938 l 6
 111.799804688 253.100585938 126.099609375 239 126.200195312 221.400390625 c 6
 126.700195312 157.900390625 l 6
 126.799804688 140.400390625 141.099609375 126.200195312 158.700195312 126.200195312 c 6
 365 126.200195312 l 6
 373.799804688 126.200195312 381 133.400390625 381 142.200195312 c 6
 381 364.299804688 l 6
 381 373.100585938 373.900390625 380.299804688 365.099609375 380.299804688 c 6
 144.700195312 381.299804688 l 6
 136.5 381.299804688 128.599609375 384.5 122.700195312 390.100585938 c 6
 9.900390625 497.799804688 l 6
 3.599609375 503.900390625 0 512.299804688 0 521 c 6
 0 748 l 6
 0 756.5 3.400390625 764.600585938 9.400390625 770.600585938 c 6
 117.5 878.799804688 l 6
 123.599609375 884.900390625 131.799804688 888.200195312 140.299804688 888.200195312 c 6
 367.799804688 887.299804688 l 6
 376.200195312 887.200195312 384.299804688 883.900390625 390.299804688 877.900390625 c 6
 497.599609375 770.600585938 l 6
 503.599609375 764.600585938 507 756.5 507 748 c 6
381 522.299804688 m 6
 381 745.299804688 l 6
 381 754.100585938 373.799804688 761.299804688 365 761.299804688 c 6
 158.200195312 761.299804688 l 6
 140.5 761.299804688 126.099609375 746.900390625 126.200195312 729.200195312 c 6
 126.900390625 538.200195312 l 6
 127 520.600585938 141.299804688 506.299804688 158.900390625 506.299804688 c 6
 365 506.299804688 l 6
 373.799804688 506.299804688 381 513.5 381 522.299804688 c 6
EndSplineSet
Validated: 524321
EndChar

StartChar: a
Encoding: 97 97 38
Width: 635
VWidth: 0
Flags: HW
LayerCount: 2
Fore
SplineSet
503.600585938 422.400390625 m 2
 505.80078125 415.799804688 506.900390625 409 507.100585938 402 c 2
 507.100585938 45.7998046875 l 2
 507.100585938 37.2998046875 503.700195312 29.2001953125 497.700195312 23.2001953125 c 2
 484.400390625 9.900390625 l 2
 478.400390625 3.900390625 470.30078125 0.5 461.80078125 0.5 c 2
 425.30078125 0.5 l 2
 416.80078125 0.5 408.700195312 3.900390625 402.700195312 9.900390625 c 2
 389.400390625 23.2001953125 l 2
 383.400390625 29.2001953125 380 37.2998046875 380 45.7998046875 c 2
 380 208 l 2
 380 216.799804688 372.80078125 224 364 224 c 2
 142 224 l 2
 133.200195312 224 126 216.799804688 126 208 c 2
 126 45.7001953125 l 2
 126 37.2001953125 122.600585938 29.099609375 116.600585938 23.099609375 c 2
 103.30078125 9.7998046875 l 2
 97.30078125 3.7998046875 89.2001953125 0.400390625 80.7001953125 0.400390625 c 2
 44.2001953125 0.400390625 l 2
 35.7001953125 0.400390625 27.6005859375 3.7998046875 21.6005859375 9.7998046875 c 2
 8.30078125 23.099609375 l 2
 2.30078125 29.099609375 -1.099609375 37.2001953125 -1.099609375 45.7001953125 c 2
 -1.099609375 402 l 2
 -1.099609375 409 0 415.799804688 2.2001953125 422.400390625 c 2
 151.700195312 867.700195312 l 2
 156 880.700195312 168.200195312 889.5 182 889.5 c 2
 323.80078125 889.5 l 2
 337.5 889.5 349.700195312 880.700195312 354.100585938 867.700195312 c 2
 503.600585938 422.400390625 l 2
379.900390625 366 m 2
 379.900390625 381.799804688 l 2
 379.900390625 388.700195312 378.80078125 395.599609375 376.600585938 402.200195312 c 2
 252.900390625 770.200195312 l 1
 129.200195312 402.200195312 l 2
 127 395.599609375 125.900390625 388.700195312 125.900390625 381.799804688 c 2
 125.900390625 366 l 2
 125.900390625 357.200195312 133.100585938 350 141.900390625 350 c 2
 363.900390625 350 l 2
 372.700195312 350 379.900390625 357.200195312 379.900390625 366 c 2
EndSplineSet
Validated: 524289
EndChar

StartChar: b
Encoding: 98 98 39
Width: 635
VWidth: 0
Flags: HW
LayerCount: 2
Fore
SplineSet
0 843.799804688 m 6
 0 852.299804688 3.400390625 860.5 9.400390625 866.5 c 6
 22.7001953125 879.69921875 l 6
 28.7001953125 885.69921875 36.7998046875 889.099609375 45.2998046875 889.099609375 c 6
 368.099609375 889 l 6
 376.599609375 889 384.700195312 885.599609375 390.700195312 879.599609375 c 6
 499 771.299804688 l 6
 505 765.299804688 508.400390625 757.19921875 508.400390625 748.69921875 c 6
 508.400390625 521.099609375 l 6
 508.400390625 512.599609375 505 504.5 499 498.5 c 6
 444.900390625 444.399414062 l 5
 499 390.299804688 l 6
 505 384.299804688 508.400390625 376.19921875 508.400390625 367.69921875 c 6
 508.400390625 140.19921875 l 6
 508.400390625 131.69921875 505 123.599609375 499 117.599609375 c 6
 390.799804688 10.19921875 l 6
 384.799804688 4.2998046875 376.700195312 0.8994140625 368.299804688 0.8994140625 c 6
 45.400390625 0.19921875 l 6
 36.900390625 0.099609375 28.7001953125 3.5 22.7001953125 9.5 c 6
 9.400390625 22.69921875 l 6
 3.400390625 28.7998046875 0 36.8994140625 0 45.3994140625 c 6
 0 843.799804688 l 6
349.299804688 127 m 6
 367 127 381.299804688 141.299804688 381.299804688 159 c 6
 381.299804688 350 l 6
 381.299804688 367.69921875 367 382 349.299804688 382 c 6
 143 382 l 6
 134.200195312 382 127 374.799804688 127 366 c 6
 127 143 l 6
 127 134.19921875 134.200195312 127 143 127 c 6
 349.299804688 127 l 6
349.299804688 508 m 6
 367 508 381.299804688 522.299804688 381.299804688 540 c 6
 381.299804688 731 l 6
 381.299804688 748.69921875 367 763 349.299804688 763 c 6
 143 763 l 6
 134.200195312 763 127 755.799804688 127 747 c 6
 127 524 l 6
 127 515.19921875 134.200195312 508 143 508 c 6
 349.299804688 508 l 6
EndSplineSet
Validated: 524289
EndChar

StartChar: c
Encoding: 99 99 40
Width: 635
VWidth: 0
Flags: HW
LayerCount: 2
Fore
SplineSet
390.700195312 878.400390625 m 6
 498.900390625 771.100585938 l 6
 505 765.100585938 508.400390625 756.900390625 508.400390625 748.400390625 c 6
 508.400390625 680 l 6
 508.400390625 671.5 505 663.400390625 499 657.400390625 c 6
 485.700195312 644.100585938 l 6
 479.700195312 638.100585938 471.599609375 634.700195312 463.099609375 634.700195312 c 6
 426.599609375 634.700195312 l 6
 418.099609375 634.700195312 410 638.100585938 404 644.100585938 c 6
 390.700195312 657.400390625 l 6
 384.700195312 663.400390625 381.299804688 671.5 381.299804688 680 c 6
 381.299804688 729.700195312 l 6
 381.299804688 747.400390625 367 761.700195312 349.299804688 761.700195312 c 6
 143 761.700195312 l 6
 134.200195312 761.700195312 127 754.5 127 745.700195312 c 6
 127 142.700195312 l 6
 127 133.900390625 134.200195312 126.700195312 143 126.700195312 c 6
 349.299804688 126.700195312 l 6
 367 126.700195312 381.299804688 141 381.299804688 158.700195312 c 6
 381.299804688 208.400390625 l 6
 381.299804688 216.900390625 384.700195312 225 390.700195312 231 c 6
 404 244.299804688 l 6
 410 250.299804688 418.099609375 253.700195312 426.599609375 253.700195312 c 6
 463.099609375 253.700195312 l 6
 471.599609375 253.700195312 479.700195312 250.299804688 485.700195312 244.299804688 c 6
 499 231 l 6
 505 225 508.400390625 216.900390625 508.400390625 208.400390625 c 6
 508.400390625 140 l 6
 508.400390625 131.5 505 123.299804688 498.900390625 117.299804688 c 6
 390.700195312 10 l 6
 384.700195312 4 376.599609375 0.7001953125 368.200195312 0.7001953125 c 6
 140.5 0.7001953125 l 6
 132.099609375 0.7001953125 124 4.1005859375 118 10 c 6
 9.5 117.400390625 l 6
 3.400390625 123.400390625 0 131.600585938 0 140.100585938 c 6
 0 748.400390625 l 6
 0 756.900390625 3.400390625 765.100585938 9.5 771.100585938 c 6
 118 878.400390625 l 6
 124 884.400390625 132.099609375 887.700195312 140.5 887.700195312 c 6
 368.200195312 887.700195312 l 6
 376.599609375 887.700195312 384.700195312 884.299804688 390.700195312 878.400390625 c 6
EndSplineSet
Validated: 524289
EndChar

StartChar: d
Encoding: 100 100 41
Width: 635
VWidth: 0
Flags: HW
LayerCount: 2
Fore
SplineSet
126.700195312 889 m 5
 44.900390625 889 l 6
 44.7001953125 889 44.5 889 44.2998046875 889 c 6
 126.700195312 889 l 5
 126.700195312 889 l 5
44.900390625 0 m 5
 126.599609375 0 l 5
 126.599609375 0.2001953125 l 5
 42.7998046875 0.099609375 l 6
 43.599609375 0 44.2001953125 0 44.900390625 0 c 5
498.700195312 771.200195312 m 6
 504.700195312 765.200195312 508.099609375 757.099609375 508.200195312 748.599609375 c 6
 508.200195312 140.200195312 l 6
 508.200195312 131.700195312 504.799804688 123.5 498.700195312 117.5 c 6
 390.5 10.099609375 l 6
 384.5 4.2001953125 376.400390625 0.7998046875 368 0.7998046875 c 6
 42.900390625 0.099609375 l 6
 35.2001953125 0.599609375 27.7998046875 3.900390625 22.2998046875 9.400390625 c 6
 9 22.7001953125 l 6
 4.099609375 27.599609375 1 33.900390625 0 40.7001953125 c 6
 0 848.400390625 l 6
 0.900390625 855.099609375 4.099609375 861.5 9 866.400390625 c 6
 22.2998046875 879.700195312 l 6
 28.099609375 885.5 36 888.900390625 44.2998046875 889 c 6
 367.900390625 888.900390625 l 6
 376.400390625 888.900390625 384.5 885.5 390.5 879.5 c 6
 498.700195312 771.200195312 l 6
381.099609375 158.799804688 m 6
 381.099609375 730.900390625 l 6
 381.099609375 748.599609375 366.799804688 762.900390625 349.099609375 762.900390625 c 6
 143 762.900390625 l 6
 134.200195312 762.900390625 127 755.700195312 127 746.900390625 c 6
 127 142.799804688 l 6
 127 134 134.200195312 126.799804688 143 126.799804688 c 6
 349.099609375 126.799804688 l 6
 366.799804688 126.799804688 381.099609375 141.099609375 381.099609375 158.799804688 c 6
EndSplineSet
Validated: 524293
EndChar

StartChar: e
Encoding: 101 101 42
Width: 635
VWidth: 0
Flags: HW
LayerCount: 2
Fore
SplineSet
508.299804688 843.5 m 1
 508.400390625 843.5 l 1
 508.400390625 808.400390625 l 2
 508.400390625 799.900390625 505 791.799804688 499 785.799804688 c 2
 485.700195312 772.5 l 2
 479.700195312 766.5 471.599609375 763.099609375 463.099609375 763.099609375 c 2
 143 763.099609375 l 2
 134.200195312 763.099609375 127 755.900390625 127 747.099609375 c 2
 127 524.099609375 l 2
 127 515.299804688 134.200195312 508.099609375 143 508.099609375 c 2
 463.099609375 508.099609375 l 2
 471.599609375 508.099609375 479.700195312 504.700195312 485.700195312 498.700195312 c 2
 499 485.400390625 l 2
 505 479.400390625 508.400390625 471.299804688 508.400390625 462.799804688 c 2
 508.400390625 427.299804688 l 2
 508.400390625 418.799804688 505 410.700195312 499 404.700195312 c 2
 485.700195312 391.400390625 l 2
 479.700195312 385.400390625 471.599609375 382 463.099609375 382 c 2
 143 382 l 2
 134.200195312 382 127 374.799804688 127 366 c 2
 127 143 l 2
 127 134.200195312 134.200195312 127 143 127 c 2
 463.099609375 127 l 2
 471.599609375 127 479.700195312 123.599609375 485.700195312 117.599609375 c 2
 499 104.299804688 l 2
 505 98.2998046875 508.400390625 90.2001953125 508.400390625 81.7001953125 c 2
 508.400390625 46.099609375 l 2
 508.400390625 37.599609375 505 29.5 499 23.5 c 2
 485.799804688 10.2001953125 l 2
 479.799804688 4.2001953125 471.700195312 0.7998046875 463.200195312 0.7998046875 c 2
 45.400390625 0.099609375 l 2
 36.900390625 0.099609375 28.7001953125 3.5 22.7001953125 9.5 c 2
 9.400390625 22.7001953125 l 2
 3.400390625 28.7001953125 0 36.7998046875 0 45.2998046875 c 2
 0 843.700195312 l 2
 0 852.200195312 3.400390625 860.299804688 9.400390625 866.299804688 c 2
 22.599609375 879.5 l 2
 28.599609375 885.5 36.7001953125 888.900390625 45.2001953125 888.900390625 c 2
 463 888.799804688 l 2
 471.5 888.799804688 479.599609375 885.400390625 485.599609375 879.400390625 c 2
 498.900390625 866.099609375 l 2
 504.900390625 860.099609375 508.299804688 852 508.299804688 843.5 c 1
EndSplineSet
Validated: 524289
EndChar

StartChar: f
Encoding: 102 102 43
Width: 635
VWidth: 0
Flags: HW
LayerCount: 2
Fore
SplineSet
127 746.700195312 m 6
 127 523.900390625 l 6
 127 515.100585938 134.200195312 507.900390625 143 507.900390625 c 6
 463.099609375 507.900390625 l 6
 471.599609375 507.900390625 479.700195312 504.5 485.700195312 498.5 c 6
 499 485.200195312 l 6
 505 479.200195312 508.400390625 471.100585938 508.400390625 462.600585938 c 6
 508.400390625 427.100585938 l 6
 508.400390625 418.600585938 505 410.5 499 404.5 c 6
 485.700195312 391.200195312 l 6
 479.700195312 385.200195312 471.599609375 381.80078125 463.099609375 381.80078125 c 6
 143 381.80078125 l 6
 134.200195312 381.80078125 127 374.600585938 127 365.80078125 c 6
 127 38.6005859375 l 6
 127 34.400390625 125.299804688 30.30078125 122.299804688 27.30078125 c 6
 99.7001953125 4.7001953125 l 6
 96.7001953125 1.7001953125 92.599609375 0 88.400390625 0 c 6
 38.599609375 0 l 6
 34.400390625 0 30.2998046875 1.7001953125 27.2998046875 4.7001953125 c 6
 4.7001953125 27.30078125 l 6
 1.7001953125 30.30078125 0 34.30078125 0 38.6005859375 c 6
 0 843.700195312 l 6
 0 852.200195312 3.400390625 860.30078125 9.400390625 866.30078125 c 6
 22.7001953125 879.5 l 6
 28.7001953125 885.5 36.7998046875 888.900390625 45.2998046875 888.900390625 c 5
 45.2998046875 888.900390625 l 5
 463.099609375 888.80078125 l 6
 471.599609375 888.80078125 479.700195312 885.400390625 485.700195312 879.400390625 c 6
 499 866.100585938 l 6
 505 860.100585938 508.400390625 852 508.400390625 843.5 c 6
 508.400390625 808 l 6
 508.400390625 799.5 505 791.400390625 499 785.400390625 c 6
 485.700195312 772.100585938 l 6
 479.700195312 766.100585938 471.599609375 762.700195312 463.099609375 762.700195312 c 6
 143 762.700195312 l 6
 138.599609375 762.700195312 134.599609375 760.900390625 131.700195312 758 c 4
 128.799804688 755.100585938 127 751.100585938 127 746.700195312 c 6
EndSplineSet
Validated: 524293
EndChar

StartChar: g
Encoding: 103 103 44
Width: 635
VWidth: 0
Flags: HW
LayerCount: 2
Fore
SplineSet
508 747.799804688 m 5
 508.099609375 747.799804688 l 5
 508.099609375 679.19921875 l 6
 508.099609375 670.69921875 504.700195312 662.599609375 498.700195312 656.599609375 c 6
 485.400390625 643.299804688 l 6
 479.400390625 637.299804688 471.299804688 633.899414062 462.799804688 633.899414062 c 6
 426.299804688 633.899414062 l 6
 417.799804688 633.899414062 409.700195312 637.299804688 403.700195312 643.299804688 c 6
 390.400390625 656.599609375 l 6
 384.400390625 662.599609375 381 670.69921875 381 679.19921875 c 6
 381 728.899414062 l 6
 381 746.599609375 366.700195312 760.899414062 349 760.899414062 c 6
 142.700195312 760.899414062 l 6
 133.900390625 760.899414062 126.700195312 753.69921875 126.700195312 744.899414062 c 6
 127 141.899414062 l 6
 127 133.099609375 134.200195312 125.899414062 143 125.899414062 c 6
 349 125.899414062 l 6
 366.700195312 125.899414062 381 140.19921875 381 157.899414062 c 6
 381 332.19921875 l 6
 381 341 373.799804688 348.19921875 365 348.19921875 c 6
 299.299804688 348.19921875 l 6
 290.799804688 348.19921875 282.700195312 351.599609375 276.700195312 357.599609375 c 6
 263.400390625 370.899414062 l 6
 257.400390625 376.899414062 254 385 254 393.5 c 6
 254 430 l 6
 254 438.5 257.400390625 446.599609375 263.400390625 452.599609375 c 6
 276.700195312 465.899414062 l 6
 282.700195312 471.899414062 290.799804688 475.299804688 299.299804688 475.299804688 c 6
 462.799804688 475.299804688 l 6
 471.299804688 475.299804688 479.400390625 471.899414062 485.400390625 465.899414062 c 6
 498.700195312 452.599609375 l 6
 504.700195312 446.599609375 508.099609375 438.5 508.099609375 430 c 6
 508.099609375 139.299804688 l 6
 508.099609375 130.799804688 504.700195312 122.69921875 498.700195312 116.69921875 c 6
 390.5 8.5 l 6
 384.400390625 2.3994140625 376.200195312 -0.900390625 367.700195312 -0.900390625 c 6
 140.099609375 0 l 6
 131.700195312 0 123.700195312 3.3994140625 117.700195312 9.2998046875 c 6
 9.5 116.69921875 l 6
 3.400390625 122.69921875 0 130.899414062 0 139.399414062 c 6
 0 747.69921875 l 6
 0 756.19921875 3.400390625 764.399414062 9.5 770.399414062 c 6
 117.700195312 877.799804688 l 6
 123.700195312 883.69921875 131.700195312 887.099609375 140.099609375 887.099609375 c 6
 367.599609375 888 l 6
 376.200195312 888 384.400390625 884.599609375 390.400390625 878.599609375 c 6
 498.599609375 770.399414062 l 6
 504.599609375 764.399414062 508 756.299804688 508 747.799804688 c 5
EndSplineSet
Validated: 524289
EndChar

StartChar: h
Encoding: 104 104 45
Width: 635
VWidth: 0
Flags: HW
LayerCount: 2
Fore
SplineSet
463.099609375 889.200195312 m 5
 426.599609375 889.200195312 l 6
 418.099609375 889.200195312 410 885.799804688 404 879.799804688 c 6
 390.700195312 866.5 l 6
 384.700195312 860.5 381.299804688 852.400390625 381.299804688 843.900390625 c 6
 381.299804688 524 l 6
 381.299804688 515.200195312 374.099609375 508 365.299804688 508 c 6
 143 508 l 6
 134.200195312 508 127 515.200195312 127 524 c 6
 127 843.900390625 l 6
 127 852.400390625 123.599609375 860.5 117.599609375 866.5 c 6
 104.299804688 879.799804688 l 6
 98.2998046875 885.799804688 90.2001953125 889.200195312 81.7001953125 889.200195312 c 6
 45.2998046875 889.200195312 l 6
 36.7998046875 889.200195312 28.7001953125 885.799804688 22.7001953125 879.799804688 c 6
 9.400390625 866.600585938 l 6
 3.400390625 860.600585938 0 852.5 0 844 c 6
 0 45.5 l 6
 0 37 3.400390625 28.900390625 9.400390625 22.900390625 c 6
 22.7001953125 9.6005859375 l 6
 28.7001953125 3.6005859375 36.7998046875 0.2001953125 45.2998046875 0.2001953125 c 6
 81.7998046875 0.2001953125 l 6
 90.2998046875 0.2001953125 98.400390625 3.6005859375 104.400390625 9.6005859375 c 6
 117.700195312 22.900390625 l 6
 123.700195312 28.900390625 127.099609375 37 127.099609375 45.5 c 6
 127.099609375 366.100585938 l 6
 127.099609375 374.900390625 134.299804688 382.100585938 143.099609375 382.100585938 c 6
 365.400390625 382.100585938 l 6
 374.200195312 382.100585938 381.400390625 374.900390625 381.400390625 366.100585938 c 6
 381.400390625 45.5 l 6
 381.400390625 37 384.799804688 28.900390625 390.799804688 22.900390625 c 6
 404.099609375 9.6005859375 l 6
 410.099609375 3.6005859375 418.200195312 0.2001953125 426.700195312 0.2001953125 c 6
 463.200195312 0.2001953125 l 6
 471.700195312 0.2001953125 479.799804688 3.6005859375 485.799804688 9.6005859375 c 6
 499.099609375 22.900390625 l 6
 505.099609375 28.900390625 508.5 37 508.5 45.5 c 6
 508.5 843.900390625 l 6
 508.5 852.400390625 505.099609375 860.5 499.099609375 866.5 c 6
 485.799804688 879.799804688 l 6
 479.700195312 885.799804688 471.599609375 889.200195312 463.099609375 889.200195312 c 5
EndSplineSet
Validated: 524297
EndChar

StartChar: i
Encoding: 105 105 46
Width: 313
VWidth: 0
Flags: W
HStem: 0 21G<105.9 150.4> 0 21G<105.9 150.4> 852.2 20G<105.9 150.4>
VStem: 65.2998 125.7<9.70917 862.49>
LayerCount: 2
Fore
SplineSet
181.700195312 849.799804688 m 2xb0
 187.700195312 843.799804688 191 835.799804688 191 827.399414062 c 2
 191 738.200195312 l 1
 191 456.200195312 l 1
 191 44.7998046875 l 2
 191 36.3994140625 187.700195312 28.2998046875 181.700195312 22.3994140625 c 2
 168.599609375 9.2998046875 l 2
 162.599609375 3.2998046875 154.599609375 0 146.200195312 0 c 2
 110.099609375 0 l 2
 101.700195312 0 93.599609375 3.3994140625 87.7001953125 9.2998046875 c 2
 74.599609375 22.3994140625 l 2
 68.599609375 28.3994140625 65.2998046875 36.3994140625 65.2998046875 44.7998046875 c 2
 65.2998046875 456.200195312 l 1
 65.2998046875 738.200195312 l 1
 65.2998046875 827.399414062 l 2
 65.2998046875 835.799804688 68.599609375 843.899414062 74.599609375 849.799804688 c 2
 87.7001953125 862.899414062 l 2
 93.7001953125 868.899414062 101.700195312 872.200195312 110.099609375 872.200195312 c 2
 146.200195312 872.200195312 l 2
 154.599609375 872.200195312 162.700195312 868.799804688 168.599609375 862.899414062 c 2
 181.700195312 849.799804688 l 2xb0
EndSplineSet
Validated: 524289
EndChar

StartChar: j
Encoding: 106 106 47
Width: 635
VWidth: 0
Flags: HW
LayerCount: 2
Fore
SplineSet
148 870.600585938 m 5
 134.900390625 857.5 l 6
 129 851.600585938 125.599609375 843.5 125.599609375 835.100585938 c 6
 125.599609375 798.80078125 l 6
 125.599609375 790.400390625 128.900390625 782.30078125 134.900390625 776.400390625 c 6
 148 763.30078125 l 6
 153.900390625 757.400390625 162 754 170.400390625 754 c 6
 361.799804688 754 l 6
 370.599609375 754 377.700195312 746.900390625 377.700195312 738.100585938 c 6
 377.700195312 140.900390625 l 6
 377.700195312 132.100585938 370.599609375 125 361.799804688 125 c 6
 157.599609375 125 l 6
 140.099609375 125 125.900390625 139.200195312 125.900390625 156.700195312 c 6
 125.900390625 218.700195312 l 5
 94.2001953125 250.400390625 l 5
 31.7001953125 250.400390625 l 5
 0 218.80078125 l 5
 0 139 l 6
 0 130.600585938 3.2998046875 122.5 9.2998046875 116.600585938 c 6
 116.599609375 9.5 l 6
 122.5 3.6005859375 130.599609375 0.2001953125 139 0.2001953125 c 6
 364.5 0 l 6
 373 0 381.099609375 3.400390625 387.099609375 9.400390625 c 6
 493 116.600585938 l 6
 498.900390625 122.5 503.5 130.5 503.5 138.80078125 c 6
 503.5 835 l 6
 503.5 843.400390625 500.200195312 851.5 494.200195312 857.5 c 6
 481.099609375 870.600585938 l 6
 475.200195312 876.600585938 467.099609375 879.900390625 458.700195312 879.900390625 c 6
 170.5 879.900390625 l 6
 162.099609375 879.900390625 154 876.600585938 148 870.600585938 c 5
EndSplineSet
Validated: 524297
EndChar

StartChar: k
Encoding: 107 107 48
Width: 635
VWidth: 0
Flags: HW
LayerCount: 2
Fore
SplineSet
506 841.30078125 m 6
 506 760 l 6
 506 751.100585938 504.099609375 742.30078125 500.5 734.100585938 c 6
 390.200195312 512.200195312 l 6
 388.599609375 508.600585938 386.400390625 505.400390625 383.599609375 502.600585938 c 6
 324.5 443.5 l 5
 383.599609375 384.400390625 l 6
 386.400390625 381.600585938 388.599609375 378.400390625 390.200195312 374.80078125 c 6
 500.299804688 153.30078125 l 6
 503.900390625 145.100585938 505.799804688 136.30078125 505.799804688 127.400390625 c 6
 505.799804688 45.900390625 l 6
 505.799804688 37.5 502.5 29.400390625 496.5 23.400390625 c 6
 483.299804688 10.2001953125 l 6
 477.400390625 4.30078125 469.299804688 0.900390625 460.799804688 0.900390625 c 6
 424.5 0.900390625 l 6
 416.099609375 0.900390625 408 4.2001953125 402 10.2001953125 c 6
 388.799804688 23.400390625 l 6
 382.900390625 29.30078125 379.5 37.400390625 379.5 45.900390625 c 6
 379.5 127.30078125 l 6
 379.5 136.30078125 377.599609375 145.100585938 374 153.200195312 c 6
 269.5 361.80078125 l 6
 264.400390625 373.200195312 253.099609375 380.600585938 240.5 380.700195312 c 6
 142.299804688 381.100585938 l 6
 133.5 381.200195312 126.299804688 374 126.299804688 365.200195312 c 6
 126.299804688 46 l 6
 126.299804688 37.6005859375 123 29.5 117 23.5 c 6
 103.799804688 10.30078125 l 6
 103.799804688 10.30078125 89.7998046875 1 81.2998046875 1 c 6
 45 1 l 6
 36.599609375 1 28.5 4.30078125 22.5 10.30078125 c 6
 9.2998046875 23.5 l 6
 3.400390625 29.400390625 0 37.5 0 46 c 6
 0 841.400390625 l 6
 0 849.80078125 3.2998046875 857.900390625 9.2998046875 863.900390625 c 6
 22.599609375 877.100585938 l 6
 28.5 883 36.599609375 886.400390625 45.099609375 886.400390625 c 6
 81.400390625 886.400390625 l 6
 89.900390625 886.400390625 98 883 104 877.100585938 c 6
 117.200195312 863.80078125 l 6
 123.099609375 857.900390625 126.5 849.80078125 126.5 841.30078125 c 6
 126.5 522.700195312 l 6
 126.5 513.900390625 133.599609375 506.80078125 142.400390625 506.80078125 c 6
 240.599609375 506.80078125 l 6
 253.200195312 506.80078125 264.599609375 514.200195312 269.700195312 525.700195312 c 6
 374.200195312 734.100585938 l 6
 377.799804688 742.30078125 379.700195312 751.100585938 379.700195312 760 c 6
 379.700195312 841.400390625 l 6
 379.700195312 849.80078125 383 857.900390625 389 863.900390625 c 6
 402.200195312 877.100585938 l 6
 408.099609375 883 416.200195312 886.400390625 424.700195312 886.400390625 c 6
 461 886.400390625 l 6
 469.400390625 886.400390625 477.5 883.100585938 483.5 877.100585938 c 6
 496.700195312 863.80078125 l 6
 502.599609375 857.900390625 506 849.80078125 506 841.30078125 c 6
EndSplineSet
Validated: 524293
EndChar

StartChar: l
Encoding: 108 108 49
Width: 635
VWidth: 0
Flags: HW
LayerCount: 2
Fore
SplineSet
141.5 124.80078125 m 6
 457.700195312 124.80078125 l 6
 466.099609375 124.80078125 474.200195312 121.400390625 480.099609375 115.5 c 6
 493.200195312 102.400390625 l 6
 499.200195312 96.400390625 502.5 88.400390625 502.5 80 c 6
 502.5 44.80078125 l 6
 502.5 36.400390625 499.099609375 28.30078125 493.200195312 22.400390625 c 6
 480.099609375 9.30078125 l 6
 480.099609375 9.30078125 466.200195312 0 457.799804688 0 c 6
 31.7001953125 -0.69921875 l 6
 14.2001953125 -0.69921875 0 13.5 0 31 c 6
 0 834 l 6
 0 842.400390625 3.2998046875 850.5 9.2998046875 856.400390625 c 6
 22.400390625 869.5 l 6
 28.400390625 875.5 36.400390625 878.80078125 44.7998046875 878.80078125 c 6
 80.900390625 878.80078125 l 6
 89.2998046875 878.80078125 97.400390625 875.400390625 103.299804688 869.5 c 6
 116.400390625 856.400390625 l 6
 122.400390625 850.400390625 125.700195312 842.400390625 125.700195312 834 c 6
 125.700195312 140.600585938 l 6
 125.700195312 131.900390625 132.799804688 124.80078125 141.5 124.80078125 c 6
EndSplineSet
Validated: 524289
EndChar

StartChar: m
Encoding: 109 109 50
Width: 635
VWidth: 0
Flags: HW
LayerCount: 2
Fore
SplineSet
508.299804688 551.5 m 1
 506.400390625 551.900390625 l 1
 398.400390625 291.400390625 l 2
 396 285.599609375 391.900390625 280.599609375 386.599609375 277 c 2
 373.200195312 268 l 2
 367.900390625 264.5 361.799804688 262.599609375 355.400390625 262.599609375 c 2
 280.099609375 262.599609375 l 2
 273.799804688 262.599609375 267.599609375 264.5 262.299804688 268 c 2
 248.900390625 277 l 2
 243.599609375 280.5 239.5 285.5 237.099609375 291.400390625 c 2
 128.900390625 552.700195312 l 1
 127 552.299804688 l 1
 127 45.2001953125 l 2
 127 36.7001953125 123.599609375 28.599609375 117.599609375 22.599609375 c 2
 104.299804688 9.2998046875 l 2
 98.2998046875 3.2998046875 90.2001953125 -0.099609375 81.7001953125 -0.099609375 c 2
 45.2998046875 -0.099609375 l 2
 36.7998046875 -0.099609375 28.7001953125 3.2998046875 22.7001953125 9.2998046875 c 2
 9.400390625 22.599609375 l 2
 3.400390625 28.599609375 0 36.7001953125 0 45.2001953125 c 2
 0 843.700195312 l 2
 0 852.200195312 3.400390625 860.299804688 9.400390625 866.299804688 c 2
 22.599609375 879.599609375 l 2
 28.599609375 885.599609375 36.7001953125 889 45.2001953125 889 c 2
 95.900390625 889 l 2
 102.200195312 889 108.400390625 887.099609375 113.700195312 883.599609375 c 2
 127.099609375 874.599609375 l 2
 132.400390625 871.099609375 136.5 866.099609375 138.900390625 860.200195312 c 2
 316.900390625 430.700195312 l 1
 318.700195312 430.700195312 l 1
 496.400390625 860.200195312 l 2
 498.799804688 866 502.900390625 871 508.200195312 874.599609375 c 2
 521.599609375 883.599609375 l 2
 526.900390625 887.099609375 533.099609375 889 539.400390625 889 c 2
 590 889 l 2
 598.5 889 606.599609375 885.599609375 612.599609375 879.599609375 c 2
 626 866.400390625 l 2
 632 860.400390625 635.400390625 852.299804688 635.400390625 843.799804688 c 2
 635.400390625 45.2998046875 l 2
 635.400390625 36.7998046875 632 28.7001953125 626 22.7001953125 c 2
 612.700195312 9.400390625 l 2
 606.700195312 3.400390625 598.599609375 0 590.099609375 0 c 2
 553.599609375 0 l 2
 545.099609375 0 537 3.400390625 531 9.400390625 c 2
 517.700195312 22.7001953125 l 2
 511.700195312 28.7001953125 508.299804688 36.7998046875 508.299804688 45.2998046875 c 2
 508.299804688 551.5 l 1
EndSplineSet
Validated: 524289
EndChar

StartChar: n
Encoding: 110 110 51
Width: 635
VWidth: 0
Flags: HW
LayerCount: 2
Fore
SplineSet
403.900390625 879.599609375 m 1
 390.600585938 866.299804688 l 2
 384.600585938 860.299804688 381.200195312 852.200195312 381.200195312 843.700195312 c 2
 381.200195312 319.700195312 l 1
 139.30078125 861.400390625 l 2
 136.80078125 867 132.700195312 871.799804688 127.5 875.200195312 c 2
 114.200195312 883.799804688 l 2
 109 887.200195312 103 889 96.80078125 889 c 2
 45.2001953125 889 l 2
 36.7001953125 889 28.6005859375 885.599609375 22.6005859375 879.599609375 c 2
 9.30078125 866.400390625 l 2
 3.30078125 860.400390625 -0.099609375 852.299804688 -0.099609375 843.799804688 c 2
 -0.099609375 45.2998046875 l 2
 -0.099609375 36.7998046875 3.30078125 28.7001953125 9.30078125 22.7001953125 c 2
 22.6005859375 9.400390625 l 2
 28.6005859375 3.400390625 36.7001953125 0 45.2001953125 0 c 2
 81.7001953125 0 l 2
 90.2001953125 0 98.30078125 3.400390625 104.30078125 9.400390625 c 2
 117.600585938 22.7001953125 l 2
 123.600585938 28.7001953125 127 36.7998046875 127 45.2998046875 c 2
 127 575.299804688 l 1
 369.100585938 27.7998046875 l 2
 371.600585938 22.099609375 375.700195312 17.2998046875 380.900390625 13.900390625 c 2
 394.200195312 5.2001953125 l 2
 399.400390625 1.7998046875 405.5 0 411.700195312 0 c 2
 463.100585938 0 l 2
 471.600585938 0 479.700195312 3.400390625 485.700195312 9.400390625 c 2
 499 22.7001953125 l 2
 505 28.7001953125 508.400390625 36.7998046875 508.400390625 45.2998046875 c 2
 508.400390625 843.700195312 l 2
 508.400390625 852.200195312 505 860.299804688 499 866.299804688 c 2
 485.600585938 879.599609375 l 2
 479.600585938 885.599609375 471.5 889 463 889 c 2
 426.5 889 l 2
 418 889 409.900390625 885.599609375 403.900390625 879.599609375 c 1
EndSplineSet
Validated: 524297
EndChar

StartChar: o
Encoding: 111 111 52
Width: 635
VWidth: 0
Flags: HW
HStem: 0 125.9<128.809 379.43> 760.3 126<128.757 379.46>
VStem: 0.5 126.5<127.64 758.56> 381.2 126.899<127.64 758.615>
LayerCount: 2
Fore
SplineSet
498.700195312 769.700195312 m 6
 504.700195312 763.700195312 508 755.600585938 508.099609375 747.100585938 c 6
 508.099609375 139.200195312 l 6
 508.099609375 130.700195312 504.700195312 122.5 498.599609375 116.5 c 6
 390.5 9.2998046875 l 6
 384.5 3.2998046875 376.400390625 0 368 0 c 6
 140.599609375 0 l 6
 132.200195312 0 124.099609375 3.400390625 118.099609375 9.2998046875 c 6
 10 116.5 l 6
 3.900390625 122.5 0.5 130.700195312 0.5 139.200195312 c 6
 0.5 747 l 6
 0.5 755.5 3.900390625 763.700195312 10 769.700195312 c 6
 118.099609375 877 l 6
 124.099609375 882.900390625 132.099609375 886.299804688 140.5 886.299804688 c 6
 367.900390625 887.200195312 l 6
 376.400390625 887.200195312 384.599609375 883.799804688 390.599609375 877.799804688 c 6
 498.700195312 769.700195312 l 6
381.200195312 157.900390625 m 6
 381.200195312 728.299804688 l 6
 381.200195312 746 366.900390625 760.299804688 349.200195312 760.299804688 c 6
 159 760.299804688 l 6
 141.299804688 760.299804688 127 746 127 728.299804688 c 6
 127 157.900390625 l 6
 127 140.200195312 141.299804688 125.900390625 159 125.900390625 c 6
 349.200195312 125.900390625 l 6
 366.900390625 125.900390625 381.200195312 140.200195312 381.200195312 157.900390625 c 6
EndSplineSet
Validated: 524289
EndChar

StartChar: p
Encoding: 112 112 53
Width: 635
VWidth: 0
Flags: HW
LayerCount: 2
Fore
SplineSet
499 771.400390625 m 2
 505 765.400390625 508.299804688 757.200195312 508.400390625 748.700195312 c 2
 508.400390625 521.200195312 l 2
 508.400390625 512.700195312 505 504.599609375 499 498.599609375 c 2
 390.799804688 390.5 l 2
 384.799804688 384.5 376.700195312 381.099609375 368.200195312 381.099609375 c 2
 143.400390625 381.099609375 l 2
 134.599609375 381.099609375 127.400390625 373.900390625 127.400390625 365.099609375 c 2
 127.099609375 45.2998046875 l 2
 127.099609375 36.7998046875 123.700195312 28.7001953125 117.700195312 22.7001953125 c 2
 104.400390625 9.400390625 l 2
 98.400390625 3.400390625 90.2998046875 0 81.7998046875 0 c 2
 45.2998046875 0 l 2
 36.7998046875 0 28.7001953125 3.400390625 22.7001953125 9.400390625 c 2
 9.400390625 22.7001953125 l 2
 3.400390625 28.7001953125 0 36.7998046875 0 45.2998046875 c 2
 0 843.799804688 l 2
 0 852.299804688 3.400390625 860.400390625 9.400390625 866.400390625 c 2
 22.7001953125 879.599609375 l 2
 28.7001953125 885.599609375 36.7998046875 889 45.2998046875 889 c 2
 368.200195312 888.900390625 l 2
 376.700195312 888.900390625 384.799804688 885.5 390.799804688 879.5 c 2
 499 771.400390625 l 2
381.299804688 540 m 2
 381.299804688 731 l 2
 381.299804688 748.700195312 367 763 349.299804688 763 c 2
 143 763 l 2
 134.200195312 763 127 755.799804688 127 747 c 2
 127 524 l 2
 127 515.200195312 134.200195312 508 143 508 c 2
 349.299804688 508 l 2
 367 508 381.299804688 522.299804688 381.299804688 540 c 2
EndSplineSet
Validated: 524289
EndChar

StartChar: q
Encoding: 113 113 54
Width: 635
VWidth: 0
Flags: HW
LayerCount: 2
Fore
SplineSet
498.599609375 770.400390625 m 6
 504.599609375 764.400390625 508 756.200195312 508.099609375 747.700195312 c 6
 508.099609375 507 l 5
 508.099609375 139.299804688 l 6
 508.099609375 130.799804688 504.700195312 122.599609375 498.599609375 116.599609375 c 6
 390.400390625 9.2998046875 l 6
 384.400390625 3.2998046875 376.299804688 0 367.900390625 0 c 6
 317.599609375 0 l 5
 317.599609375 -68.2001953125 l 6
 317.599609375 -76.7001953125 314.200195312 -84.7998046875 308.200195312 -90.7998046875 c 6
 294.900390625 -104.099609375 l 6
 288.900390625 -110.099609375 280.799804688 -113.5 272.299804688 -113.5 c 6
 235.799804688 -113.5 l 6
 227.299804688 -113.5 219.200195312 -110.099609375 213.200195312 -104.099609375 c 6
 199.900390625 -90.7998046875 l 6
 193.900390625 -84.7998046875 190.5 -76.7001953125 190.5 -68.2001953125 c 6
 190.5 0.099609375 l 5
 140.200195312 0.099609375 l 6
 131.799804688 0.099609375 123.700195312 3.5 117.700195312 9.400390625 c 6
 9.5 116.700195312 l 6
 3.400390625 122.700195312 0 130.900390625 0 139.400390625 c 6
 0 747.799804688 l 6
 0 756.299804688 3.400390625 764.400390625 9.400390625 770.400390625 c 6
 117.700195312 878.599609375 l 6
 123.700195312 884.599609375 131.799804688 888 140.299804688 888 c 6
 367.799804688 888 l 6
 376.299804688 888 384.400390625 884.599609375 390.400390625 878.599609375 c 6
 498.599609375 770.400390625 l 6
381 158 m 6
 381 729 l 6
 381 746.700195312 366.700195312 761 349 761 c 6
 158.599609375 761 l 6
 140.900390625 761 126.599609375 746.700195312 126.599609375 729 c 6
 126.599609375 158 l 6
 126.599609375 140.299804688 140.900390625 126 158.599609375 126 c 6
 190.400390625 126 l 5
 190.400390625 213 l 6
 190.400390625 221.5 193.799804688 229.599609375 199.799804688 235.599609375 c 6
 213.099609375 248.900390625 l 6
 219.099609375 254.900390625 227.200195312 258.299804688 235.700195312 258.299804688 c 6
 272.200195312 258.299804688 l 6
 280.700195312 258.299804688 288.799804688 254.900390625 294.799804688 248.900390625 c 6
 308.099609375 235.599609375 l 6
 314.099609375 229.599609375 317.5 221.5 317.5 213 c 6
 317.5 126 l 5
 349 126 l 6
 366.700195312 126 381 140.299804688 381 158 c 6
EndSplineSet
Validated: 524289
EndChar

StartChar: r
Encoding: 114 114 55
Width: 635
VWidth: 0
Flags: HW
LayerCount: 2
Fore
SplineSet
489.700195312 489.400390625 m 6
 407 406.799804688 l 6
 402.5 402.200195312 401.099609375 395.400390625 403.5 389.5 c 6
 506.200195312 132.799804688 l 6
 507.700195312 129 508.5 125 508.5 120.900390625 c 6
 508.5 45.2998046875 l 6
 508.5 36.7998046875 505.099609375 28.7001953125 499.099609375 22.7001953125 c 6
 485.799804688 9.400390625 l 6
 479.799804688 3.400390625 471.700195312 0 463.200195312 0 c 6
 426.700195312 0 l 6
 418.200195312 0 410.099609375 3.400390625 404.099609375 9.400390625 c 6
 390.799804688 22.7001953125 l 6
 384.799804688 28.7001953125 381.400390625 36.7998046875 381.400390625 45.2998046875 c 6
 380.599609375 115.299804688 l 6
 380.5 123.100585938 379 130.799804688 376.200195312 138 c 6
 288.5 360.799804688 l 6
 283.700195312 373.100585938 271.900390625 381.100585938 258.700195312 381.100585938 c 6
 143.099609375 381.100585938 l 6
 134.299804688 381.100585938 127.099609375 373.900390625 127.099609375 365.100585938 c 6
 127.099609375 45.400390625 l 6
 127.099609375 36.900390625 123.700195312 28.7998046875 117.700195312 22.7998046875 c 6
 104.400390625 9.5 l 6
 98.400390625 3.5 90.2998046875 0.1005859375 81.7998046875 0.1005859375 c 6
 45.2998046875 0.1005859375 l 6
 36.7998046875 0.1005859375 28.7001953125 3.5 22.7001953125 9.5 c 6
 9.400390625 22.7998046875 l 6
 3.400390625 28.7998046875 0 36.900390625 0 45.400390625 c 6
 0 844 l 6
 0 852.5 3.400390625 860.600585938 9.400390625 866.600585938 c 6
 22.7001953125 879.799804688 l 6
 28.7001953125 885.799804688 36.7998046875 889.200195312 45.2998046875 889.200195312 c 6
 368.200195312 889.200195312 l 6
 376.700195312 889.200195312 384.799804688 885.799804688 390.799804688 879.799804688 c 6
 499 771.5 l 6
 505 765.5 508.400390625 757.400390625 508.400390625 748.900390625 c 6
 508.400390625 534.700195312 l 6
 508.400390625 517.700195312 501.700195312 501.400390625 489.700195312 489.400390625 c 6
381.400390625 540.100585938 m 6
 381.400390625 730.299804688 l 6
 381.400390625 747.900390625 367.099609375 762.200195312 349.5 762.299804688 c 6
 143.099609375 763.100585938 l 6
 134.200195312 763.100585938 127 756 127 747.100585938 c 6
 127 524.100585938 l 6
 127 515.299804688 134.200195312 508.100585938 143 508.100585938 c 6
 349.400390625 508.100585938 l 6
 367.099609375 508.100585938 381.400390625 522.400390625 381.400390625 540.100585938 c 6
EndSplineSet
Validated: 524289
EndChar

StartChar: s
Encoding: 115 115 56
Width: 635
VWidth: 0
Flags: HW
LayerCount: 2
Fore
SplineSet
426.599609375 633.900390625 m 1
 463.099609375 633.900390625 l 2
 471.599609375 633.900390625 479.700195312 637.30078125 485.700195312 643.30078125 c 2
 499 656.600585938 l 2
 505 662.600585938 508.400390625 670.700195312 508.400390625 679.200195312 c 2
 508.400390625 747.700195312 l 2
 508.400390625 756.200195312 505 764.30078125 499 770.30078125 c 2
 390.700195312 878.5 l 2
 384.700195312 884.5 376.599609375 887.900390625 368.099609375 887.900390625 c 2
 140.599609375 887.900390625 l 2
 132.099609375 887.900390625 124 884.5 118 878.5 c 2
 9.7001953125 770.30078125 l 2
 3.7001953125 764.30078125 0.2998046875 756.200195312 0.2998046875 747.700195312 c 2
 0.2998046875 600.400390625 l 2
 0.2998046875 581.400390625 8.7001953125 563.400390625 23.2998046875 551.200195312 c 2
 369.799804688 262.5 l 2
 377.099609375 256.400390625 381.299804688 247.400390625 381.299804688 237.900390625 c 2
 381.099609375 157.80078125 l 2
 381 140.200195312 366.700195312 125.900390625 349.099609375 125.900390625 c 2
 159 125.900390625 l 2
 141.299804688 125.900390625 127 140.200195312 127 157.900390625 c 2
 127 207.600585938 l 2
 127 216.100585938 123.599609375 224.200195312 117.599609375 230.200195312 c 2
 104.299804688 243.5 l 2
 98.2998046875 249.5 90.2001953125 252.900390625 81.7001953125 252.900390625 c 2
 45.2998046875 252.900390625 l 2
 36.7998046875 252.900390625 28.7001953125 249.5 22.7001953125 243.5 c 2
 9.400390625 230.30078125 l 2
 3.400390625 224.30078125 0 216.200195312 0 207.700195312 c 2
 0 139.30078125 l 2
 0 130.80078125 3.400390625 122.600585938 9.5 116.600585938 c 2
 117.700195312 9.30078125 l 2
 123.700195312 3.400390625 131.799804688 0 140.200195312 0 c 2
 367.799804688 0 l 2
 376.200195312 0 384.299804688 3.30078125 390.299804688 9.30078125 c 2
 498.799804688 116.600585938 l 2
 504.900390625 122.600585938 508.299804688 130.80078125 508.299804688 139.30078125 c 2
 508.299804688 286.400390625 l 2
 508.299804688 305.400390625 499.900390625 323.400390625 485.299804688 335.600585938 c 2
 138.799804688 624.30078125 l 2
 131.5 630.400390625 127.299804688 639.400390625 127.299804688 648.900390625 c 2
 127.299804688 728.900390625 l 2
 127.299804688 746.600585938 141.599609375 760.900390625 159.299804688 760.900390625 c 2
 349.299804688 760.900390625 l 2
 367 760.900390625 381.299804688 746.600585938 381.299804688 728.900390625 c 2
 381.299804688 679.200195312 l 2
 381.299804688 670.700195312 384.700195312 662.600585938 390.700195312 656.600585938 c 2
 404 643.30078125 l 2
 410 637.30078125 418.099609375 633.900390625 426.599609375 633.900390625 c 1
EndSplineSet
Validated: 524297
EndChar

StartChar: t
Encoding: 116 116 57
Width: 635
VWidth: 0
Flags: HW
LayerCount: 2
Fore
SplineSet
507.400390625 857 m 1
 507.5 857 l 1
 507.5 808.299804688 l 2
 507.5 799.799804688 504.100585938 791.700195312 498.100585938 785.700195312 c 2
 484.80078125 772.400390625 l 2
 478.80078125 766.400390625 470.700195312 763 462.200195312 763 c 2
 333 763 l 2
 324.200195312 763 317 755.799804688 317 747 c 2
 317 45.2998046875 l 2
 317 36.7998046875 313.600585938 28.7001953125 307.600585938 22.7001953125 c 2
 294.30078125 9.400390625 l 2
 288.30078125 3.400390625 280.200195312 0 271.700195312 0 c 2
 235.200195312 0 l 2
 226.700195312 0 218.600585938 3.400390625 212.600585938 9.400390625 c 2
 199.30078125 22.7001953125 l 2
 193.30078125 28.7001953125 189.900390625 36.7998046875 189.900390625 45.2998046875 c 2
 189.900390625 747 l 2
 189.900390625 755.799804688 182.700195312 763 173.900390625 763 c 2
 44.7001953125 763 l 2
 36.2001953125 763 28.1005859375 766.400390625 22.1005859375 772.400390625 c 2
 8.80078125 785.700195312 l 2
 2.80078125 791.700195312 -0.599609375 799.799804688 -0.599609375 808.299804688 c 2
 -0.599609375 843.799804688 l 2
 -0.599609375 852.299804688 2.80078125 860.400390625 8.80078125 866.400390625 c 2
 22.1005859375 879.599609375 l 2
 28.1005859375 885.599609375 36.2001953125 889 44.7001953125 889 c 2
 189.900390625 889 l 1
 316.900390625 889 l 1
 462.200195312 889 l 2
 470.700195312 889 478.80078125 885.599609375 484.80078125 879.599609375 c 2
 507.400390625 857 l 1
EndSplineSet
Validated: 524289
EndChar

StartChar: u
Encoding: 117 117 58
Width: 635
VWidth: 0
Flags: HW
LayerCount: 2
Fore
SplineSet
463.099609375 888 m 1
 426.599609375 888 l 2
 418.099609375 888 410 884.599609375 404 878.599609375 c 2
 390.700195312 865.299804688 l 2
 384.700195312 859.299804688 381.299804688 851.200195312 381.299804688 842.700195312 c 2
 381.299804688 158 l 2
 381.299804688 140.299804688 367 126 349.299804688 126 c 2
 159.299804688 126 l 2
 141.599609375 126 127.299804688 140.299804688 127.299804688 158 c 2
 127 842.799804688 l 2
 127 851.299804688 123.599609375 859.400390625 117.599609375 865.400390625 c 2
 104.400390625 878.599609375 l 2
 98.400390625 884.599609375 90.2998046875 888 81.7998046875 888 c 2
 45.2998046875 888 l 2
 36.7998046875 888 28.7001953125 884.599609375 22.7001953125 878.599609375 c 2
 9.400390625 865.400390625 l 2
 3.400390625 859.400390625 0 851.299804688 0 842.799804688 c 2
 0 139.400390625 l 2
 0 130.900390625 3.400390625 122.700195312 9.5 116.700195312 c 2
 118 9.2998046875 l 2
 124 3.400390625 132.099609375 0 140.5 0 c 2
 368.200195312 0 l 2
 376.599609375 0 384.700195312 3.2998046875 390.700195312 9.2998046875 c 2
 498.900390625 116.599609375 l 2
 505 122.599609375 508.400390625 130.799804688 508.400390625 139.299804688 c 2
 508.400390625 842.700195312 l 2
 508.400390625 851.200195312 505 859.299804688 499 865.299804688 c 2
 485.700195312 878.599609375 l 2
 479.700195312 884.599609375 471.599609375 888 463.099609375 888 c 1
EndSplineSet
Validated: 524297
EndChar

StartChar: v
Encoding: 118 118 59
Width: 635
VWidth: 0
Flags: HW
LayerCount: 2
Fore
SplineSet
3.2998046875 467.099609375 m 6
 1.099609375 473.700195312 0 480.599609375 0 487.5 c 6
 0 843.700195312 l 6
 0 852.200195312 3.400390625 860.299804688 9.400390625 866.299804688 c 6
 22.599609375 879.599609375 l 6
 28.599609375 885.599609375 36.7001953125 889 45.2001953125 889 c 6
 81.7001953125 889 l 6
 90.2001953125 889 98.2998046875 885.599609375 104.299804688 879.599609375 c 6
 117.599609375 866.299804688 l 6
 123.599609375 860.299804688 127 852.200195312 127 843.700195312 c 6
 127 507.700195312 l 6
 127 500.799804688 128.099609375 493.900390625 130.299804688 487.299804688 c 6
 254 119.299804688 l 5
 377.700195312 487.299804688 l 6
 379.900390625 493.900390625 381 500.799804688 381 507.700195312 c 6
 381 843.700195312 l 6
 381 852.200195312 384.400390625 860.299804688 390.400390625 866.299804688 c 6
 403.700195312 879.599609375 l 6
 409.700195312 885.599609375 417.799804688 889 426.299804688 889 c 6
 462.799804688 889 l 6
 471.299804688 889 479.400390625 885.599609375 485.400390625 879.599609375 c 6
 498.700195312 866.299804688 l 6
 504.700195312 860.299804688 508.099609375 852.200195312 508.099609375 843.700195312 c 6
 508.099609375 487.400390625 l 6
 508.099609375 480.5 507 473.599609375 504.799804688 467 c 6
 355.200195312 21.7998046875 l 6
 350.799804688 8.7998046875 338.599609375 0 324.900390625 0 c 6
 183.200195312 0 l 6
 169.5 0 157.200195312 8.7998046875 152.900390625 21.7998046875 c 6
 3.2998046875 467.099609375 l 6
EndSplineSet
Validated: 524289
EndChar

StartChar: w
Encoding: 119 119 60
Width: 635
VWidth: 0
Flags: HW
LayerCount: 2
Fore
SplineSet
505.900390625 630 m 6
 505.900390625 837.200195312 l 6
 505.900390625 845.700195312 509.299804688 853.799804688 515.299804688 859.799804688 c 6
 528.599609375 873.099609375 l 6
 534.599609375 879.099609375 542.700195312 882.5 551.200195312 882.5 c 6
 587.700195312 882.5 l 6
 596.200195312 882.5 604.299804688 879.099609375 610.299804688 873.099609375 c 6
 623.599609375 859.799804688 l 6
 629.599609375 853.799804688 633 845.700195312 633 837.200195312 c 6
 633 622.799804688 l 6
 633 621.5 632.900390625 620.299804688 632.799804688 619.099609375 c 6
 566 40.400390625 l 6
 565.099609375 32.599609375 561.400390625 25.400390625 555.5 20.2001953125 c 6
 541.900390625 8.099609375 l 6
 536 2.900390625 528.5 0 520.599609375 0 c 6
 460.5 0 l 6
 453.5 0 446.799804688 2.2998046875 441.200195312 6.5 c 6
 427.5 16.7998046875 l 6
 421.900390625 21 417.900390625 26.900390625 416 33.599609375 c 6
 316.5 385.900390625 l 5
 217 33.599609375 l 6
 215.099609375 26.900390625 211.099609375 21 205.5 16.7998046875 c 6
 191.799804688 6.5 l 6
 186.200195312 2.2998046875 179.5 0 172.5 0 c 6
 112.400390625 0 l 6
 104.5 0 97 2.900390625 91.099609375 8.099609375 c 6
 77.5 20.2001953125 l 6
 71.599609375 25.400390625 67.900390625 32.599609375 67 40.400390625 c 6
 0.2001953125 619.099609375 l 6
 0.099609375 620.299804688 0 621.599609375 0 622.799804688 c 6
 0 837.299804688 l 6
 0 845.799804688 3.400390625 853.900390625 9.400390625 859.900390625 c 6
 22.7001953125 873.099609375 l 6
 28.7001953125 879.099609375 36.7998046875 882.5 45.2998046875 882.5 c 6
 81.7998046875 882.5 l 6
 90.2998046875 882.5 98.400390625 879.099609375 104.400390625 873.099609375 c 6
 117.5 859.799804688 l 6
 123.5 853.799804688 126.900390625 845.700195312 126.900390625 837.200195312 c 6
 126.900390625 630.099609375 l 6
 126.900390625 628.799804688 127 627.599609375 127.099609375 626.400390625 c 6
 163.400390625 311.799804688 l 5
 244.099609375 597.400390625 l 6
 246 604.099609375 250 610 255.599609375 614.200195312 c 6
 269.299804688 624.5 l 6
 274.900390625 628.700195312 281.599609375 631 288.599609375 631 c 6
 344.200195312 631 l 6
 351.200195312 631 357.900390625 628.700195312 363.5 624.5 c 6
 377.200195312 614.099609375 l 6
 382.799804688 609.900390625 386.799804688 604 388.700195312 597.299804688 c 6
 469.400390625 311.700195312 l 5
 505.700195312 626.299804688 l 6
 505.799804688 627.5 505.900390625 628.799804688 505.900390625 630 c 6
EndSplineSet
Validated: 524289
EndChar

StartChar: x
Encoding: 120 120 61
Width: 635
VWidth: 0
Flags: HW
HStem: -0.299805 21.0996G<41.0498 86.0498 422.05 467.05> -0.299805 21.0996G<41.0498 86.0498 422.05 467.05> 868.8 20G<41.0498 86.0498 422.05 467.05> 868.8 20G<41.0498 86.0498 422.05 467.05>
VStem: 0 127.1<9.93085 152.087 736.513 878.574> 381 127.1<10.0314 152.175 736.425 878.568>
LayerCount: 2
Fore
SplineSet
508 749.399414062 m 6xac
 508 736.799804688 504.299804688 724.399414062 497.299804688 713.899414062 c 6
 331.700195312 444.299804688 l 5
 497.400390625 174.700195312 l 6
 504.400390625 164.200195312 508.099609375 151.899414062 508.099609375 139.299804688 c 6
 508.099609375 45.099609375 l 6
 508.099609375 36.599609375 504.700195312 28.5 498.700195312 22.5 c 6
 485.400390625 9.2001953125 l 6
 479.400390625 3.2001953125 471.299804688 -0.2001953125 462.799804688 -0.2001953125 c 6
 426.299804688 -0.2001953125 l 6
 417.799804688 -0.2001953125 409.700195312 3.2001953125 403.700195312 9.2001953125 c 6
 390.400390625 22.5 l 6
 384.400390625 28.5 381 36.599609375 381 45.099609375 c 6
 381 109.099609375 l 6
 381 115.5 379.099609375 121.700195312 375.5 127 c 6
 254 328.399414062 l 5
 132.599609375 126.899414062 l 6
 129 121.599609375 127.099609375 115.399414062 127.099609375 109 c 6
 127.099609375 45 l 6
 127.099609375 36.5 123.700195312 28.3994140625 117.700195312 22.3994140625 c 6
 104.400390625 9.099609375 l 6
 98.400390625 3.099609375 90.2998046875 -0.2998046875 81.7998046875 -0.2998046875 c 6
 45.2998046875 -0.2998046875 l 6
 36.7998046875 -0.2998046875 28.7001953125 3.099609375 22.7001953125 9.099609375 c 6
 9.400390625 22.3994140625 l 6
 3.400390625 28.3994140625 0 36.5 0 45 c 6
 0 139.200195312 l 6
 0 151.799804688 3.7001953125 164.200195312 10.7001953125 174.700195312 c 6
 176.299804688 444.399414062 l 5
 10.7001953125 714 l 6
 3.7001953125 724.5 0 736.799804688 0 749.399414062 c 6
 0 843.599609375 l 6
 0 852.099609375 3.400390625 860.200195312 9.400390625 866.200195312 c 6
 22.7001953125 879.399414062 l 6
 28.7001953125 885.399414062 36.7998046875 888.799804688 45.2998046875 888.799804688 c 6
 81.7998046875 888.799804688 l 6
 90.2998046875 888.799804688 98.400390625 885.399414062 104.400390625 879.399414062 c 6
 117.599609375 866.200195312 l 6
 123.599609375 860.200195312 127 852.099609375 127 843.599609375 c 6
 127 779.599609375 l 6
 127 773.200195312 128.900390625 767 132.5 761.700195312 c 6
 254 560.200195312 l 5
 375.5 761.599609375 l 6
 379.099609375 766.899414062 381 773.099609375 381 779.5 c 6
 381 843.5 l 6
 381 852 384.400390625 860.099609375 390.400390625 866.099609375 c 6
 403.700195312 879.399414062 l 6
 409.700195312 885.399414062 417.799804688 888.799804688 426.299804688 888.799804688 c 6
 462.799804688 888.799804688 l 6
 471.299804688 888.799804688 479.400390625 885.399414062 485.400390625 879.399414062 c 6
 498.599609375 866.099609375 l 6
 504.599609375 860.099609375 508 852 508 843.5 c 6
 508 749.399414062 l 6xac
EndSplineSet
Validated: 524289
EndChar

StartChar: y
Encoding: 121 121 62
Width: 635
VWidth: 0
Flags: HW
LayerCount: 2
Fore
SplineSet
498.599609375 866.400390625 m 6
 504.599609375 860.400390625 508 852.200195312 508 843.700195312 c 6
 508 749.5 l 6
 508 736.900390625 504.299804688 724.599609375 497.299804688 714.099609375 c 6
 322.700195312 379.200195312 l 6
 319.299804688 372.599609375 317.5 365.299804688 317.5 357.900390625 c 6
 317.5 45.2998046875 l 6
 317.5 36.7998046875 314.099609375 28.7001953125 308.099609375 22.7001953125 c 6
 294.799804688 9.400390625 l 6
 288.799804688 3.400390625 280.700195312 0 272.200195312 0 c 6
 254 0 l 5
 235.799804688 0 l 6
 227.299804688 0 219.200195312 3.400390625 213.200195312 9.400390625 c 6
 199.900390625 22.7001953125 l 6
 193.900390625 28.7001953125 190.5 36.7998046875 190.5 45.2998046875 c 6
 190.5 358 l 6
 190.5 365.400390625 188.700195312 372.700195312 185.299804688 379.299804688 c 6
 10.7001953125 714.200195312 l 6
 3.7001953125 724.700195312 0 737 0 749.599609375 c 6
 0 843.799804688 l 6
 0 852.299804688 3.400390625 860.400390625 9.400390625 866.400390625 c 6
 22.7001953125 879.599609375 l 6
 28.7001953125 885.599609375 36.7998046875 889 45.2998046875 889 c 6
 81.7998046875 889 l 6
 90.2998046875 889 98.400390625 885.599609375 104.400390625 879.599609375 c 6
 117.599609375 866.400390625 l 6
 123.599609375 860.400390625 127 852.299804688 127 843.799804688 c 6
 127 779.799804688 l 6
 127 773.400390625 128.900390625 767.200195312 132.5 761.900390625 c 6
 254 509.799804688 l 5
 375.5 761.799804688 l 6
 379.099609375 767.099609375 381 773.299804688 381 779.700195312 c 6
 381 843.700195312 l 6
 381 852.200195312 384.400390625 860.299804688 390.400390625 866.299804688 c 6
 403.700195312 879.599609375 l 6
 409.700195312 885.599609375 417.799804688 889 426.299804688 889 c 6
 462.799804688 889 l 6
 471.299804688 889 479.400390625 885.599609375 485.400390625 879.599609375 c 6
 498.599609375 866.400390625 l 6
EndSplineSet
Validated: 524289
EndChar

StartChar: z
Encoding: 122 122 63
Width: 635
VWidth: 0
Flags: HW
LayerCount: 2
Fore
SplineSet
22.599609375 882.599609375 m 6
 28.599609375 888.599609375 36.7998046875 892 45.2998046875 892 c 6
 464.299804688 892 l 6
 472.799804688 892 480.900390625 888.599609375 486.900390625 882.599609375 c 6
 500.099609375 869.299804688 l 6
 506.099609375 863.299804688 509.5 855.200195312 509.5 846.700195312 c 6
 509.5 775 l 6
 509.5 769.5 508.099609375 764.099609375 505.400390625 759.299804688 c 6
 161 149.400390625 l 6
 154.900390625 138.700195312 162.700195312 125.5 174.900390625 125.5 c 6
 464.299804688 125.5 l 6
 472.799804688 125.5 480.900390625 122.099609375 486.900390625 116.099609375 c 6
 500.200195312 102.799804688 l 6
 506.200195312 96.7998046875 509.599609375 88.7001953125 509.599609375 80.2001953125 c 6
 509.599609375 45.2998046875 l 6
 509.599609375 36.7998046875 506.200195312 28.7001953125 500.200195312 22.7001953125 c 6
 486.900390625 9.400390625 l 6
 480.900390625 3.400390625 472.799804688 0 464.299804688 0 c 6
 45.2998046875 0 l 6
 36.7998046875 0 28.7001953125 3.400390625 22.7001953125 9.400390625 c 6
 9.400390625 22.7001953125 l 6
 3.400390625 28.7001953125 0 36.7998046875 0 45.2998046875 c 6
 0 117 l 6
 0 122.5 1.400390625 128 4.2001953125 132.799804688 c 6
 351.5 742.700195312 l 6
 357.599609375 753.299804688 349.900390625 766.599609375 337.599609375 766.599609375 c 6
 45.2998046875 766.599609375 l 6
 36.7998046875 766.599609375 28.7001953125 770 22.7001953125 776 c 6
 9.400390625 789.299804688 l 6
 3.400390625 795.299804688 0 803.400390625 0 811.900390625 c 6
 0 846.799804688 l 6
 0 855.299804688 3.400390625 863.400390625 9.400390625 869.400390625 c 6
 22.599609375 882.599609375 l 6
EndSplineSet
Validated: 524289
EndChar

StartChar: slash
Encoding: 47 47 64
Width: 635
VWidth: 0
Flags: HW
LayerCount: 2
Fore
SplineSet
512.200195312 887.799804688 m 1
 498.599609375 901.400390625 l 2
 492.5 907.5 484.200195312 911 475.5 911 c 2
 438.099609375 911 l 2
 429.400390625 911 421.099609375 907.5 414.900390625 901.400390625 c 2
 401.299804688 887.799804688 l 2
 395.200195312 881.700195312 391.700195312 873.299804688 391.700195312 864.599609375 c 2
 391.700195312 710.700195312 l 2
 391.700195312 702.599609375 388.700195312 694.799804688 383.299804688 688.799804688 c 2
 8 270.599609375 l 2
 2.599609375 264.599609375 -0.400390625 256.700195312 -0.400390625 248.599609375 c 2
 0 101.700195312 l 1
 0 44 l 2
 0 35.2998046875 3.5 27 9.599609375 20.7998046875 c 2
 23.2001953125 7.2001953125 l 2
 29.2998046875 1.099609375 37.7001953125 -2.400390625 46.400390625 -2.400390625 c 2
 83.7998046875 -2.400390625 l 2
 92.5 -2.400390625 100.799804688 1.099609375 107 7.2001953125 c 2
 120.599609375 20.7998046875 l 2
 126.700195312 26.900390625 130.200195312 35.2998046875 130.200195312 44 c 2
 130.200195312 199.299804688 l 2
 130.200195312 207.400390625 133.200195312 215.200195312 138.599609375 221.200195312 c 2
 513.599609375 639 l 2
 519 645 522 652.799804688 522 660.900390625 c 2
 522 864.700195312 l 2
 521.799804688 873.299804688 518.400390625 881.700195312 512.200195312 887.799804688 c 1
EndSplineSet
Validated: 524297
EndChar

StartChar: backslash
Encoding: 92 92 65
Width: 635
VWidth: 0
Flags: HW
LayerCount: 2
Fore
SplineSet
512.200195312 22.2001953125 m 1
 498.599609375 8.599609375 l 2
 492.5 2.5 484.200195312 -1 475.5 -1 c 2
 438.099609375 -1 l 2
 429.400390625 -1 421.099609375 2.5 414.900390625 8.599609375 c 2
 401.299804688 22.2001953125 l 2
 395.200195312 28.2998046875 391.700195312 36.7001953125 391.700195312 45.400390625 c 2
 391.700195312 199.299804688 l 2
 391.700195312 207.400390625 388.700195312 215.200195312 383.299804688 221.200195312 c 2
 8 639.400390625 l 2
 2.599609375 645.400390625 -0.400390625 653.299804688 -0.400390625 661.400390625 c 2
 0 808.299804688 l 1
 0 866 l 2
 0 874.700195312 3.5 883 9.599609375 889.200195312 c 2
 23.2001953125 902.799804688 l 2
 29.2998046875 908.900390625 37.7001953125 912.400390625 46.400390625 912.400390625 c 2
 83.7998046875 912.400390625 l 2
 92.5 912.400390625 100.799804688 908.900390625 107 902.799804688 c 2
 120.599609375 889.200195312 l 2
 126.700195312 883.099609375 130.200195312 874.700195312 130.200195312 866 c 2
 130.200195312 710.700195312 l 2
 130.200195312 702.599609375 133.200195312 694.799804688 138.599609375 688.799804688 c 2
 513.599609375 271 l 2
 519 265 522 257.200195312 522 249.099609375 c 2
 522 45.2998046875 l 2
 521.799804688 36.7001953125 518.400390625 28.2998046875 512.200195312 22.2001953125 c 1
EndSplineSet
Validated: 524289
EndChar

StartChar: period
Encoding: 46 46 66
Width: 635
VWidth: 0
Flags: HW
LayerCount: 2
Fore
SplineSet
319 95.7998046875 m 5
 318.599609375 45.7998046875 l 6
 318.599609375 37.2998046875 315.200195312 29.19921875 309.200195312 23.19921875 c 6
 296 9.8994140625 l 6
 290 3.8994140625 281.900390625 0.5 273.400390625 0.5 c 6
 236.900390625 0.5 l 6
 228.400390625 0.5 220.299804688 3.8994140625 214.299804688 9.8994140625 c 6
 201 23.19921875 l 6
 195 29.19921875 191.599609375 37.2998046875 191.599609375 45.7998046875 c 6
 191.599609375 95.7998046875 l 1029
191.599609375 64 m 5
 192 114 l 6
 192 122.5 195.400390625 130.599609375 201.400390625 136.599609375 c 6
 214.700195312 149.899414062 l 6
 220.700195312 155.899414062 228.799804688 159.299804688 237.299804688 159.299804688 c 6
 273.799804688 159.299804688 l 6
 282.299804688 159.299804688 290.400390625 155.899414062 296.400390625 149.899414062 c 6
 309.700195312 136.599609375 l 6
 315.700195312 130.599609375 319.099609375 122.5 319.099609375 114 c 6
 319.099609375 64 l 1029
EndSplineSet
Validated: 524291
EndChar

StartChar: comma
Encoding: 44 44 67
Width: 635
VWidth: 0
Flags: HW
LayerCount: 2
Fore
SplineSet
319 95.7998046875 m 1
 318.599609375 -40.2001953125 l 2
 318.599609375 -48.7001953125 315.200195312 -56.80078125 309.200195312 -62.80078125 c 2
 296 -76.1005859375 l 2
 290 -82.1005859375 281.900390625 -85.5 273.400390625 -85.5 c 2
 236.900390625 -85.5 l 2
 228.400390625 -85.5 220.299804688 -82.1005859375 214.299804688 -76.1005859375 c 2
 201 -62.80078125 l 2
 195 -56.80078125 191.599609375 -48.7001953125 191.599609375 -40.2001953125 c 2
 191.599609375 95.7998046875 l 1025
191.599609375 -22 m 1
 192 114 l 2
 192.025018974 122.49815228 195.400390625 130.599609375 201.400390625 136.599609375 c 2
 214.700195312 149.899414062 l 2
 220.700195312 155.899414062 228.799804688 159.299804688 237.299804688 159.299804688 c 2
 273.799804688 159.299804688 l 2
 282.299804688 159.299804688 290.400390625 155.899414062 296.400390625 149.899414062 c 2
 309.700195312 136.599609375 l 2
 315.700195312 130.599609375 319.099609375 122.497377554 319.099609375 114 c 2
 319.099609375 -22 l 1025
EndSplineSet
Validated: 524291
EndChar

StartChar: colon
Encoding: 58 58 68
Width: 635
VWidth: 0
Flags: HW
LayerCount: 2
Fore
SplineSet
319 406.299804688 m 1
 318.599609375 356.299804688 l 2
 318.599609375 347.799804688 315.200195312 339.69921875 309.200195312 333.69921875 c 2
 296 320.399414062 l 2
 290 314.399414062 281.900390625 311 273.400390625 311 c 2
 236.900390625 311 l 2
 228.400390625 311 220.299804688 314.399414062 214.299804688 320.399414062 c 2
 201 333.69921875 l 2
 195 339.69921875 191.599609375 347.799804688 191.599609375 356.299804688 c 2
 191.599609375 406.299804688 l 1025
191.599609375 374.5 m 1
 192 424.5 l 2
 192 433 195.400390625 441.099609375 201.400390625 447.099609375 c 2
 214.700195312 460.399414062 l 2
 220.700195312 466.399414062 228.799804688 469.799804688 237.299804688 469.799804688 c 2
 273.799804688 469.799804688 l 2
 282.299804688 469.799804688 290.400390625 466.399414062 296.400390625 460.399414062 c 2
 309.700195312 447.099609375 l 2
 315.700195312 441.099609375 319.099609375 433 319.099609375 424.5 c 2
 319.099609375 374.5 l 1025
319 96.7998046875 m 1
 318.599609375 46.7998046875 l 2
 318.599609375 38.2998046875 315.200195312 30.19921875 309.200195312 24.19921875 c 2
 296 10.8994140625 l 2
 290 4.8994140625 281.900390625 1.5 273.400390625 1.5 c 2
 236.900390625 1.5 l 2
 228.400390625 1.5 220.299804688 4.8994140625 214.299804688 10.8994140625 c 2
 201 24.19921875 l 2
 195 30.19921875 191.599609375 38.2998046875 191.599609375 46.7998046875 c 2
 191.599609375 96.7998046875 l 1025
191.599609375 65 m 1
 192 115 l 2
 192 123.5 195.400390625 131.599609375 201.400390625 137.599609375 c 2
 214.700195312 150.899414062 l 2
 220.700195312 156.899414062 228.799804688 160.299804688 237.299804688 160.299804688 c 2
 273.799804688 160.299804688 l 2
 282.299804688 160.299804688 290.400390625 156.899414062 296.400390625 150.899414062 c 2
 309.700195312 137.599609375 l 2
 315.700195312 131.599609375 319.099609375 123.5 319.099609375 115 c 2
 319.099609375 65 l 1025
EndSplineSet
Validated: 524291
EndChar

StartChar: hyphen
Encoding: 45 45 70
Width: 635
VWidth: 0
Flags: HW
LayerCount: 2
Fore
SplineSet
434.599609375 246.5 m 6
 428.599609375 240.5 420.599609375 237.200195312 412.200195312 237.200195312 c 6
 109.200195312 237.200195312 l 6
 100.799804688 237.200195312 92.7001953125 240.5 86.7998046875 246.5 c 6
 73.7001953125 259.599609375 l 6
 67.7001953125 265.599609375 64.400390625 273.599609375 64.400390625 282 c 6
 64.400390625 318 l 6
 64.400390625 326.400390625 67.7998046875 334.5 73.7001953125 340.400390625 c 6
 86.7998046875 353.5 l 6
 92.7998046875 359.5 100.799804688 362.799804688 109.200195312 362.799804688 c 6
 412.200195312 362.799804688 l 6
 420.599609375 362.799804688 428.700195312 359.5 434.599609375 353.5 c 6
 447.700195312 340.400390625 l 6
 453.700195312 334.400390625 457 326.400390625 457 318 c 6
 457 282 l 6
 457 273.599609375 453.599609375 265.5 447.700195312 259.599609375 c 6
 434.599609375 246.5 l 6
EndSplineSet
Validated: 524289
EndChar

StartChar: exclam
Encoding: 33 33 71
Width: 635
VWidth: 0
Flags: HW
LayerCount: 2
Fore
SplineSet
190.599609375 95.2998046875 m 1
 190.19921875 45.2998046875 l 2
 190.19921875 36.7998046875 186.799804688 28.69921875 180.799804688 22.69921875 c 2
 167.599609375 9.3994140625 l 2
 161.599609375 3.3994140625 153.5 0 145 0 c 2
 108.5 0 l 2
 100 0 91.8994140625 3.3994140625 85.8994140625 9.3994140625 c 2
 72.599609375 22.69921875 l 2
 66.599609375 28.69921875 63.19921875 36.7998046875 63.19921875 45.2998046875 c 2
 63.19921875 95.2998046875 l 1025
63.19921875 63.5 m 1
 63.599609375 113.5 l 2
 63.599609375 122 67 130.099609375 73 136.099609375 c 2
 86.2998046875 149.399414062 l 2
 92.2998046875 155.399414062 100.399414062 158.799804688 108.899414062 158.799804688 c 2
 145.399414062 158.799804688 l 2
 153.899414062 158.799804688 162 155.399414062 168 149.399414062 c 2
 181.299804688 136.099609375 l 2
 187.299804688 130.099609375 190.69921875 122 190.69921875 113.5 c 2
 190.69921875 63.5 l 1025
181.700195312 849.799804688 m 2
 187.700195312 843.799804688 191 835.799804688 191 827.399414062 c 2
 191 738.200195312 l 1
 191 456.200195312 l 1
 191 297.799804688 l 2
 191 297.799804688 187.700195312 281.299804688 181.700195312 275.399414062 c 2
 168.599609375 262.299804688 l 2
 162.599609375 256.299804688 154.599609375 253 146.200195312 253 c 2
 110.099609375 253 l 2
 101.700195312 253 93.599609375 256.399414062 87.7001953125 262.299804688 c 2
 74.599609375 275.399414062 l 2
 68.599609375 281.399414062 65.2998046875 289.399414062 65.2998046875 297.799804688 c 2
 65.2998046875 456.200195312 l 1
 65.2998046875 738.200195312 l 1
 65.2998046875 827.399414062 l 2
 65.2998046875 835.799804688 68.599609375 843.899414062 74.599609375 849.799804688 c 2
 87.7001953125 862.899414062 l 2
 93.7001953125 868.899414062 101.700195312 872.200195312 110.099609375 872.200195312 c 2
 146.200195312 872.200195312 l 2
 154.599609375 872.200195312 162.700195312 868.799804688 168.599609375 862.899414062 c 2
 181.700195312 849.799804688 l 2
EndSplineSet
Validated: 524291
EndChar

StartChar: plus
Encoding: 43 43 72
Width: 635
VWidth: 0
Flags: HW
LayerCount: 2
Fore
SplineSet
434.599609375 246.5 m 6
 428.599609375 240.5 420.599609375 237.200195312 412.200195312 237.200195312 c 6
 109.200195312 237.200195312 l 6
 100.799804688 237.200195312 92.7001953125 240.5 86.7998046875 246.5 c 6
 73.7001953125 259.599609375 l 6
 67.7001953125 265.599609375 64.400390625 273.599609375 64.400390625 282 c 6
 64.400390625 318 l 6
 64.400390625 326.400390625 67.7998046875 334.5 73.7001953125 340.400390625 c 6
 86.7998046875 353.5 l 6
 92.7998046875 359.5 100.799804688 362.799804688 109.200195312 362.799804688 c 6
 412.200195312 362.799804688 l 6
 420.599609375 362.799804688 428.700195312 359.5 434.599609375 353.5 c 6
 447.700195312 340.400390625 l 6
 453.700195312 334.400390625 457 326.400390625 457 318 c 6
 457 282 l 6
 457 273.599609375 453.599609375 265.5 447.700195312 259.599609375 c 6
 434.599609375 246.5 l 6
EndSplineSet
Validated: 524289
EndChar

StartChar: bracketleft
Encoding: 91 91 73
Width: 635
VWidth: 0
Flags: HW
LayerCount: 2
Fore
SplineSet
317.099609375 842.69921875 m 6
 317.099609375 807.5 l 6
 317.099609375 799 313.700195312 790.899414062 307.700195312 784.899414062 c 6
 294.400390625 771.599609375 l 6
 288.400390625 765.599609375 280.299804688 762.19921875 271.799804688 762.19921875 c 6
 143 762.19921875 l 6
 134.200195312 762.19921875 127 755 127 746.19921875 c 6
 127 142.19921875 l 6
 127 133.399414062 134.200195312 126.19921875 143 126.19921875 c 6
 271.900390625 126.19921875 l 6
 280.400390625 126.19921875 288.5 122.799804688 294.5 116.799804688 c 6
 307.799804688 103.5 l 6
 313.799804688 97.5 317.200195312 89.3994140625 317.200195312 80.8994140625 c 6
 317.200195312 45.2998046875 l 6
 317.200195312 36.7998046875 313.799804688 28.69921875 307.799804688 22.69921875 c 6
 294.599609375 9.3994140625 l 6
 288.599609375 3.3994140625 280.5 0 272 0 c 6
 45.400390625 -0.7001953125 l 6
 36.900390625 -0.7001953125 28.7001953125 2.69921875 22.7001953125 8.69921875 c 6
 9.400390625 21.8994140625 l 6
 3.400390625 27.8994140625 0 36 0 44.5 c 6
 0 842.899414062 l 6
 0 851.399414062 3.400390625 859.5 9.400390625 865.5 c 6
 22.7001953125 878.69921875 l 6
 28.7001953125 884.69921875 36.7998046875 888.099609375 45.2998046875 888.099609375 c 6
 271.900390625 888 l 6
 280.400390625 888 288.5 884.599609375 294.5 878.599609375 c 6
 307.700195312 865.299804688 l 6
 313.700195312 859.299804688 317.099609375 851.19921875 317.099609375 842.69921875 c 6
EndSplineSet
Validated: 524289
EndChar

StartChar: bracketright
Encoding: 93 93 74
Width: 635
VWidth: 0
Flags: HW
LayerCount: 2
Fore
SplineSet
0 842.799804688 m 2
 0 851.299804688 3.400390625 859.400390625 9.400390625 865.400390625 c 2
 22.599609375 878.700195312 l 2
 28.599609375 884.700195312 36.7001953125 888.100585938 45.2001953125 888.100585938 c 2
 271.799804688 888.200195312 l 2
 280.299804688 888.200195312 288.400390625 884.799804688 294.400390625 878.799804688 c 2
 307.700195312 865.5 l 2
 313.700195312 859.5 317.099609375 851.400390625 317.099609375 842.900390625 c 2
 317.099609375 44.5 l 2
 317.099609375 36 313.700195312 27.900390625 307.700195312 21.900390625 c 2
 294.400390625 8.7001953125 l 2
 288.400390625 2.7001953125 280.200195312 -0.7001953125 271.700195312 -0.7001953125 c 2
 45.099609375 0 l 2
 36.599609375 0 28.5 3.400390625 22.5 9.400390625 c 2
 9.400390625 22.6005859375 l 2
 3.400390625 28.6005859375 0 36.7001953125 0 45.2001953125 c 2
 0 80.7998046875 l 2
 0 89.2998046875 3.400390625 97.400390625 9.400390625 103.400390625 c 2
 22.7001953125 116.700195312 l 2
 28.7001953125 122.700195312 36.7998046875 126.100585938 45.2998046875 126.100585938 c 2
 174.099609375 126.100585938 l 2
 182.900390625 126.100585938 190.099609375 133.299804688 190.099609375 142.100585938 c 2
 190.099609375 746.100585938 l 2
 190.099609375 754.900390625 182.900390625 762.100585938 174.099609375 762.100585938 c 2
 45.2998046875 762.100585938 l 2
 36.7998046875 762.100585938 28.7001953125 765.5 22.7001953125 771.5 c 2
 9.400390625 784.700195312 l 2
 3.400390625 790.700195312 0 798.799804688 0 807.299804688 c 2
 0 842.799804688 l 2
EndSplineSet
Validated: 524289
EndChar

